<?xml version="1.0" encoding="UTF-8"?>
<svg version="1.1" xmlns="http://www.w3.org/2000/svg" width="1024" height="1024">
<path d="M0 0 C337.92 0 675.84 0 1024 0 C1024 337.92 1024 675.84 1024 1024 C686.08 1024 348.16 1024 0 1024 C0 686.08 0 348.16 0 0 Z " fill="#FDFDFD" transform="translate(0,0)"/>
<path d="M0 0 C3.43624521 0.95996691 6.91225279 1.57577232 10.4296875 2.16015625 C12.4609375 2.6875 12.4609375 2.6875 14.4609375 4.6875 C16.25614536 5.24641412 18.0742406 5.73202012 19.8984375 6.1875 C27.55351866 8.30282483 34.99769049 10.91381044 42.4609375 13.625 C43.64228271 14.04394531 44.82362793 14.46289062 46.04077148 14.89453125 C52.1803894 17.15245912 56.6784916 19.25139456 61.4609375 23.6875 C64.22627395 25.22498768 64.22627395 25.22498768 67.0234375 26.375 C68.38662109 26.96861328 68.38662109 26.96861328 69.77734375 27.57421875 C72.33044504 28.63336557 74.89106522 29.66977481 77.4609375 30.6875 C77.4609375 31.3475 77.4609375 32.0075 77.4609375 32.6875 C78.32460938 32.94015625 79.18828125 33.1928125 80.078125 33.453125 C83.62758068 34.74830744 86.41709751 36.38847565 89.5859375 38.4375 C93.8188936 41.13374338 98.04179016 43.5337635 102.5859375 45.6875 C107.81928709 48.21418334 112.30390849 51.29971146 116.890625 54.85546875 C119.47480717 56.8101659 119.47480717 56.8101659 122.71484375 58.234375 C126.33864759 60.15194972 126.25451927 61.90738953 127.4609375 65.6875 C129.72695615 66.97792763 129.72695615 66.97792763 132.4609375 67.6875 C137.03721919 69.64876358 139.68011157 71.5162611 142.4609375 75.6875 C142.4609375 76.3475 142.4609375 77.0075 142.4609375 77.6875 C143.605625 77.81125 143.605625 77.81125 144.7734375 77.9375 C148.03713792 78.84830012 148.59188876 79.96888365 150.4609375 82.6875 C151.4509375 83.0175 152.4409375 83.3475 153.4609375 83.6875 C154.92578125 85.17578125 154.92578125 85.17578125 156.3984375 87 C158.01801186 88.96095522 159.59849411 90.82505661 161.3984375 92.625 C163.40732944 94.63389194 165.31538552 96.69662334 167.2109375 98.8125 C167.82453125 99.49570312 168.438125 100.17890625 169.0703125 100.8828125 C170.4609375 102.6875 170.4609375 102.6875 170.4609375 104.6875 C171.29044922 104.99880859 171.29044922 104.99880859 172.13671875 105.31640625 C175.3092758 107.18794831 177.35431346 109.80607635 179.6484375 112.625 C180.12966064 113.20475586 180.61088379 113.78451172 181.10668945 114.38183594 C182.56609083 116.14400469 184.01527312 117.9140513 185.4609375 119.6875 C186.2653125 120.67363281 187.0696875 121.65976562 187.8984375 122.67578125 C189.37749238 124.4912184 190.85539182 126.30759763 192.33203125 128.125 C194.40314686 130.61793915 196.53805643 133.03311571 198.7109375 135.4375 C203.86969263 141.20135763 207.56528691 146.51731757 210.4609375 153.6875 C211.1209375 154.6775 211.7809375 155.6675 212.4609375 156.6875 C212.4609375 157.6775 212.4609375 158.6675 212.4609375 159.6875 C213.06454102 159.76734131 213.66814453 159.84718262 214.29003906 159.92944336 C217.18848636 160.94155299 217.71411508 162.16005538 219.1953125 164.81640625 C219.68298096 165.67838623 220.17064941 166.54036621 220.6730957 167.4284668 C221.1805835 168.35957275 221.68807129 169.29067871 222.2109375 170.25 C222.74098389 171.20366455 223.27103027 172.1573291 223.81713867 173.13989258 C225.38413122 175.97921934 226.92761357 178.82987192 228.4609375 181.6875 C228.8645752 182.43676758 229.26821289 183.18603516 229.68408203 183.95800781 C234.4505314 192.89483428 238.31698822 202.05139415 241.87890625 211.52734375 C243.14565772 214.89652452 244.52017688 218.20079897 245.9609375 221.5 C254.70958315 242.39314718 259.93659082 264.37159457 263.4609375 286.6875 C263.58710449 287.47479492 263.71327148 288.26208984 263.84326172 289.07324219 C264.24381254 291.58943412 264.6355741 294.10682258 265.0234375 296.625 C265.1383252 297.36242432 265.25321289 298.09984863 265.37158203 298.85961914 C265.76176663 301.46575256 266.11408507 304.07522764 266.4609375 306.6875 C266.63447754 307.93063965 266.80801758 309.1737793 266.98681641 310.45458984 C268.54893085 322.37560625 268.7692238 334.1992224 268.72167969 346.21142578 C268.71090544 349.44712858 268.72166878 352.68228207 268.734375 355.91796875 C268.74115785 366.73175207 268.33678146 377.02187747 266.4609375 387.6875 C266.22092837 390.12395629 265.99001891 392.56134953 265.7734375 395 C263.65555326 414.74615597 259.01716573 435.13997838 252.44482422 453.86083984 C251.43316413 456.76729158 250.45097979 459.68247906 249.47335815 462.60050964 C248.4933163 465.52342454 247.50635962 468.44397311 246.5177002 471.36398315 C246.02580944 472.81700521 245.53498603 474.27038907 245.04528809 475.72415161 C244.35272962 477.77398146 243.65212146 479.82088505 242.94921875 481.8671875 C242.33880737 483.65745361 242.33880737 483.65745361 241.71606445 485.48388672 C240.54591497 488.47060165 239.18118487 490.9905903 237.4609375 493.6875 C236.76639348 495.13276439 236.09834803 496.59114403 235.4609375 498.0625 C235.12578125 498.83207031 234.790625 499.60164063 234.4453125 500.39453125 C233.95804688 501.52955078 233.95804688 501.52955078 233.4609375 502.6875 C233.00460937 503.74517578 233.00460937 503.74517578 232.5390625 504.82421875 C231.84264334 506.4437218 231.15120714 508.06536634 230.4609375 509.6875 C229.8009375 509.6875 229.1409375 509.6875 228.4609375 509.6875 C228.36425781 510.37972656 228.26757812 511.07195313 228.16796875 511.78515625 C227.31909134 515.26977456 225.87619171 517.98396505 224.1484375 521.125 C223.55417969 522.21683594 222.95992187 523.30867187 222.34765625 524.43359375 C220.50428024 527.61274949 218.51524307 530.64175043 216.4609375 533.6875 C215.69456409 534.96951972 214.9407256 536.25930696 214.2109375 537.5625 C213.6334375 538.59375 213.0559375 539.625 212.4609375 540.6875 C211.8009375 540.6875 211.1409375 540.6875 210.4609375 540.6875 C210.2753125 541.8321875 210.2753125 541.8321875 210.0859375 543 C209.4609375 545.6875 209.4609375 545.6875 207.4609375 548.6875 C206.8009375 548.6875 206.1409375 548.6875 205.4609375 548.6875 C205.18040527 549.27289551 204.89987305 549.85829102 204.61083984 550.46142578 C198.29655005 562.68514007 188.59650386 573.50410426 179.4609375 583.6875 C178.625625 584.63367188 177.7903125 585.57984375 176.9296875 586.5546875 C171.04118331 593.11564433 164.86869347 599.37985589 158.6484375 605.625 C157.83560303 606.44250732 157.02276855 607.26001465 156.18530273 608.10229492 C144.56897072 619.6875 144.56897072 619.6875 141.4609375 619.6875 C141.4609375 620.3475 141.4609375 621.0075 141.4609375 621.6875 C140.13842773 622.93334961 140.13842773 622.93334961 138.26953125 624.33984375 C137.57939941 624.86368652 136.88926758 625.3875293 136.17822266 625.92724609 C135.42589355 626.48750488 134.67356445 627.04776367 133.8984375 627.625 C133.13063965 628.20330566 132.3628418 628.78161133 131.57177734 629.37744141 C129.20669955 631.15453526 126.83443503 632.92167353 124.4609375 634.6875 C123.76790527 635.20683105 123.07487305 635.72616211 122.36083984 636.26123047 C114.59140687 642.0820843 106.74520497 647.61309115 98.4609375 652.6875 C97.41164063 653.34492187 96.36234375 654.00234375 95.28125 654.6796875 C85.25998959 660.92823811 75.16310929 666.44274581 64.40234375 671.30859375 C62.06198414 672.40573444 59.86160517 673.54911595 57.6484375 674.875 C54.04329566 676.92498261 50.34662576 678.28438694 46.4609375 679.6875 C44.93666138 680.23869507 44.93666138 680.23869507 43.3815918 680.80102539 C39.82670179 682.08131596 36.26913915 683.35394389 32.7109375 684.625 C30.91269531 685.26985352 30.91269531 685.26985352 29.078125 685.92773438 C8.72853086 693.2001761 -11.41278489 698.02718126 -32.61450195 702.12255859 C-34.50011081 702.48680427 -36.38422143 702.85893766 -38.26635742 703.24072266 C-71.89859305 709.82087614 -108.03676552 707.77435728 -141.76269531 703.19140625 C-145.02661151 702.75587981 -148.29007995 702.36447717 -151.5625 702 C-163.1573952 700.64103185 -174.00876571 697.77733078 -185.1484375 694.30859375 C-188.52220567 693.26032856 -191.86218562 692.35807265 -195.3203125 691.63671875 C-199.17054383 690.8232353 -202.65225665 689.59064142 -206.2890625 688.0625 C-211.64919613 685.83940954 -217.03967805 683.73670586 -222.47827148 681.71264648 C-231.1337936 678.48402986 -239.38262904 675.04009217 -247.5390625 670.6875 C-249.22447307 669.84994887 -250.91193959 669.01652058 -252.6015625 668.1875 C-263.21712488 662.86286871 -273.42817346 656.90531855 -283.5390625 650.6875 C-284.54694824 650.0682666 -284.54694824 650.0682666 -285.57519531 649.43652344 C-287.54852024 648.21728715 -289.51385729 646.98624447 -291.4765625 645.75 C-292.08604736 645.37254639 -292.69553223 644.99509277 -293.32348633 644.60620117 C-294.76475155 643.68758567 -296.15784647 642.69414897 -297.5390625 641.6875 C-297.5390625 641.0275 -297.5390625 640.3675 -297.5390625 639.6875 C-298.25835937 639.44128906 -298.97765625 639.19507813 -299.71875 638.94140625 C-302.86467429 637.54273354 -305.03829708 635.84710297 -307.6640625 633.625 C-308.62570312 632.81804688 -309.58734375 632.01109375 -310.578125 631.1796875 C-311.55523437 630.35726562 -312.53234375 629.53484375 -313.5390625 628.6875 C-315.37093345 627.20652264 -317.20424109 625.72732039 -319.0390625 624.25 C-323.82742969 620.3359709 -328.41027963 616.23348024 -332.9609375 612.046875 C-335.27100886 609.9328097 -337.6103451 607.86322175 -339.9765625 605.8125 C-345.45717033 601.02962869 -345.45717033 601.02962869 -347.5390625 598.6875 C-347.5390625 598.0275 -347.5390625 597.3675 -347.5390625 596.6875 C-348.5290625 596.6875 -349.5190625 596.6875 -350.5390625 596.6875 C-350.5390625 596.0275 -350.5390625 595.3675 -350.5390625 594.6875 C-351.1990625 594.6875 -351.8590625 594.6875 -352.5390625 594.6875 C-353.91441589 592.71616014 -355.24117294 590.71068078 -356.5390625 588.6875 C-358.36534809 586.29050017 -360.15728214 584.05510948 -362.328125 581.96484375 C-365.10200459 579.10764975 -367.4857892 576.02631261 -369.9140625 572.875 C-372.88063193 569.05401524 -375.84090302 565.25708062 -379.0390625 561.625 C-382.01351394 558.13001955 -384.08976845 555.03538214 -385.5390625 550.6875 C-386.1990625 550.6875 -386.8590625 550.6875 -387.5390625 550.6875 C-388.33570313 549.25857422 -388.33570313 549.25857422 -389.1484375 547.80078125 C-389.86174481 546.53372221 -390.57529966 545.26680249 -391.2890625 544 C-391.63710938 543.37416016 -391.98515625 542.74832031 -392.34375 542.10351562 C-394.0137643 539.15006441 -395.64557164 536.55730176 -397.8046875 533.91796875 C-399.5390625 531.6875 -399.5390625 531.6875 -399.5390625 528.6875 C-400.1990625 528.6875 -400.8590625 528.6875 -401.5390625 528.6875 C-401.9721875 527.635625 -402.4053125 526.58375 -402.8515625 525.5 C-403.85021019 523.14604474 -404.87951699 521.13268527 -406.2265625 518.9375 C-407.5390625 516.6875 -407.5390625 516.6875 -407.5390625 513.6875 C-408.1990625 513.6875 -408.8590625 513.6875 -409.5390625 513.6875 C-410.93988414 510.77320484 -412.33372405 507.85561795 -413.7265625 504.9375 C-414.11392578 504.13183594 -414.50128906 503.32617188 -414.90039062 502.49609375 C-419.90082998 491.9993037 -424.15750034 481.31313995 -427.9140625 470.3125 C-428.29981445 469.18618164 -428.68556641 468.05986328 -429.08300781 466.89941406 C-430.24238183 463.49788154 -431.39237656 460.0933284 -432.5390625 456.6875 C-432.87260742 455.70297852 -433.20615234 454.71845703 -433.54980469 453.70410156 C-440.27285216 433.74224734 -444.95383993 413.59426036 -447.5390625 392.6875 C-447.69568359 391.51598389 -447.69568359 391.51598389 -447.85546875 390.32080078 C-452.26445887 356.32553359 -452.253715 317.97013759 -444.21020508 284.56420898 C-443.46981309 281.39067722 -442.9532588 278.23159403 -442.5390625 275 C-441.84927172 270.21745063 -440.79084005 265.79671716 -439.28955078 261.21020508 C-438.603814 258.90515688 -438.14919944 256.69223258 -437.75 254.32421875 C-436.504421 247.93028592 -434.42673899 241.82128289 -432.33544922 235.66503906 C-431.66593271 233.69300862 -431.00607905 231.71794616 -430.34765625 229.7421875 C-427.96377743 222.62947288 -425.43856987 215.60705997 -422.5390625 208.6875 C-422.25740234 208.00864746 -421.97574219 207.32979492 -421.68554688 206.63037109 C-417.79940314 197.35577984 -413.46626484 188.46182902 -408.5390625 179.6875 C-407.84172304 178.42097176 -407.14513951 177.15402708 -406.44921875 175.88671875 C-398.35073852 161.21688999 -389.5260451 147.14640094 -379.5390625 133.6875 C-379.08402344 133.07084473 -378.62898438 132.45418945 -378.16015625 131.81884766 C-376.7953866 129.97650366 -375.41983172 128.14287466 -374.0390625 126.3125 C-373.61753906 125.74635986 -373.19601562 125.18021973 -372.76171875 124.59692383 C-371.73578842 123.25543583 -370.64302131 121.96554462 -369.5390625 120.6875 C-368.8790625 120.6875 -368.2190625 120.6875 -367.5390625 120.6875 C-367.3121875 120.15382813 -367.0853125 119.62015625 -366.8515625 119.0703125 C-365.11310176 115.91417841 -362.87931098 113.28049595 -360.5390625 110.5625 C-360.02504883 109.96429443 -359.51103516 109.36608887 -358.98144531 108.74975586 C-354.28755336 103.38130489 -349.32778568 98.29392848 -344.2890625 93.25 C-343.17337891 92.13310791 -343.17337891 92.13310791 -342.03515625 90.99365234 C-337.35848001 86.36370134 -332.52676561 81.97804639 -327.5390625 77.6875 C-326.46738766 76.73851542 -325.3970016 75.78807274 -324.328125 74.8359375 C-310.01463784 62.22713209 -294.28667698 51.53922622 -278.18359375 41.359375 C-276.53065148 40.31438343 -274.88153404 39.26328809 -273.23828125 38.203125 C-272.55378906 37.76484375 -271.86929688 37.3265625 -271.1640625 36.875 C-270.57882812 36.49730469 -269.99359375 36.11960938 -269.390625 35.73046875 C-267.5390625 34.6875 -267.5390625 34.6875 -265.2109375 33.78125 C-261.9967515 32.46550134 -259.15104913 30.77200023 -256.1640625 29 C-237.60836865 18.21174865 -217.51611082 11.14292214 -197.16748047 4.54345703 C-195.08000654 3.86366104 -192.99797581 3.16715466 -190.91796875 2.46484375 C-181.441205 -0.64373612 -171.71278721 -2.7440374 -161.93359375 -4.64941406 C-159.66507774 -5.09254478 -157.39937417 -5.55031671 -155.13671875 -6.02246094 C-106.43988384 -15.93670606 -47.6701329 -14.81013838 0 0 Z " fill="#356FAC" transform="translate(602.5390625,164.3125)"/>
<path d="M0 0 C8.814418 6.84768304 14.55734386 16.80972886 16.3984375 27.86328125 C16.48755988 29.49981563 16.53087435 31.13929684 16.53545189 32.77824974 C16.54052643 33.74733847 16.54560097 34.7164272 16.55082929 35.71488225 C16.55132705 36.77176988 16.55182481 37.8286575 16.55233765 38.91757202 C16.55891103 40.61094631 16.55891103 40.61094631 16.5656172 42.33853018 C16.57899538 46.1298226 16.58518195 49.92109177 16.59130859 53.71240234 C16.59868599 56.42768635 16.60747473 59.14296552 16.61608887 61.85824585 C16.64058369 70.01351005 16.65523716 78.16878027 16.66814893 86.32406992 C16.67186345 88.62955272 16.67583649 90.93503493 16.6799016 93.24051714 C16.7051443 107.57262286 16.72718655 121.9047296 16.73962975 136.23685265 C16.74255921 139.55487446 16.7455209 142.87289623 16.74853516 146.19091797 C16.74928121 147.01554671 16.75002726 147.84017545 16.75079592 148.68979295 C16.76343549 162.03278409 16.79664118 175.37564155 16.83833699 188.71857028 C16.88084278 202.43376237 16.90433486 216.14888621 16.90955031 229.86414397 C16.91295499 237.55808398 16.92459802 245.25181522 16.95765305 252.94569016 C16.98577406 259.50170161 16.99660055 266.05746147 16.98545758 272.61352853 C16.98030096 275.95337979 16.98573423 279.29228206 17.00792313 282.63212585 C17.12387071 301.09760377 17.04981477 316.8968722 3.3984375 330.86328125 C2.83125 331.4459375 2.2640625 332.02859375 1.6796875 332.62890625 C-8.9568624 342.56304247 -21.88339591 344.46998255 -35.82421875 344.17578125 C-49.15928849 343.54190984 -59.56699857 337.60850123 -68.671875 328.15625 C-77.6015625 317.54546748 -77.6015625 317.54546748 -77.6015625 312.86328125 C-78.32859375 312.7653125 -79.055625 312.66734375 -79.8046875 312.56640625 C-95.66824353 310.20721074 -108.93562919 305.16244634 -119.53125 292.66796875 C-126.05475161 283.83047035 -131.8321045 273.54708355 -131.5390625 262.3359375 C-131.0245637 252.91757475 -131.0245637 252.91757475 -135.234375 244.98828125 C-137.45250386 243.41932833 -139.7894187 242.11817413 -142.171875 240.81640625 C-153.0121871 234.64310779 -160.05045178 222.10494291 -164.0390625 210.61328125 C-168.169684 194.78218685 -167.09114777 177.40616527 -159.6015625 162.86328125 C-156.96979226 158.49772012 -154.32363036 154.37549959 -150.6015625 150.86328125 C-150.8696875 150.10015625 -151.1378125 149.33703125 -151.4140625 148.55078125 C-151.8059375 147.33390625 -152.1978125 146.11703125 -152.6015625 144.86328125 C-152.86582031 144.1671875 -153.13007813 143.47109375 -153.40234375 142.75390625 C-158.00189525 129.06424586 -157.35655969 111.90160865 -151.1953125 98.89453125 C-145.64507803 88.52711215 -137.23791361 79.21408365 -126.6015625 73.86328125 C-125.6115625 73.86328125 -124.6215625 73.86328125 -123.6015625 73.86328125 C-123.64796875 73.14785156 -123.694375 72.43242187 -123.7421875 71.6953125 C-124.24920473 57.69801533 -119.66417098 46.34738932 -110.7578125 35.6484375 C-102.30684418 26.62598977 -91.21844016 20.23514132 -78.890625 18.4765625 C-76.54117541 18.08030049 -76.54117541 18.08030049 -75.3359375 16.3671875 C-75.01109375 15.72652344 -74.68625 15.08585937 -74.3515625 14.42578125 C-70.51881254 7.6850083 -65.08675399 1.19582514 -58.6015625 -3.13671875 C-57.27049628 -3.47899292 -55.93756171 -3.81423618 -54.6015625 -4.13671875 C-54.2715625 -4.79671875 -53.9415625 -5.45671875 -53.6015625 -6.13671875 C-35.12208932 -13.85527919 -16.44284568 -11.25925064 0 0 Z " fill="#4E7EDB" transform="translate(419.6015625,344.13671875)"/>
<path d="M0 0 C8.814418 6.84768304 14.55734386 16.80972886 16.3984375 27.86328125 C16.48755988 29.49981563 16.53087435 31.13929684 16.53545189 32.77824974 C16.54052643 33.74733847 16.54560097 34.7164272 16.55082929 35.71488225 C16.55132705 36.77176988 16.55182481 37.8286575 16.55233765 38.91757202 C16.55891103 40.61094631 16.55891103 40.61094631 16.5656172 42.33853018 C16.57899538 46.1298226 16.58518195 49.92109177 16.59130859 53.71240234 C16.59868599 56.42768635 16.60747473 59.14296552 16.61608887 61.85824585 C16.64058369 70.01351005 16.65523716 78.16878027 16.66814893 86.32406992 C16.67186345 88.62955272 16.67583649 90.93503493 16.6799016 93.24051714 C16.7051443 107.57262286 16.72718655 121.9047296 16.73962975 136.23685265 C16.74255921 139.55487446 16.7455209 142.87289623 16.74853516 146.19091797 C16.74928121 147.01554671 16.75002726 147.84017545 16.75079592 148.68979295 C16.76343549 162.03278409 16.79664118 175.37564155 16.83833699 188.71857028 C16.88084278 202.43376237 16.90433486 216.14888621 16.90955031 229.86414397 C16.91295499 237.55808398 16.92459802 245.25181522 16.95765305 252.94569016 C16.98577406 259.50170161 16.99660055 266.05746147 16.98545758 272.61352853 C16.98030096 275.95337979 16.98573423 279.29228206 17.00792313 282.63212585 C17.12387071 301.09760377 17.04981477 316.8968722 3.3984375 330.86328125 C2.83125 331.4459375 2.2640625 332.02859375 1.6796875 332.62890625 C-8.9568624 342.56304247 -21.88339591 344.46998255 -35.82421875 344.17578125 C-49.15928849 343.54190984 -59.56699857 337.60850123 -68.671875 328.15625 C-77.6015625 317.54546748 -77.6015625 317.54546748 -77.6015625 312.86328125 C-78.32859375 312.7653125 -79.055625 312.66734375 -79.8046875 312.56640625 C-95.66824353 310.20721074 -108.93562919 305.16244634 -119.53125 292.66796875 C-126.05475161 283.83047035 -131.8321045 273.54708355 -131.5390625 262.3359375 C-131.0245637 252.91757475 -131.0245637 252.91757475 -135.234375 244.98828125 C-137.45250386 243.41932833 -139.7894187 242.11817413 -142.171875 240.81640625 C-153.0121871 234.64310779 -160.05045178 222.10494291 -164.0390625 210.61328125 C-168.169684 194.78218685 -167.09114777 177.40616527 -159.6015625 162.86328125 C-156.96979226 158.49772012 -154.32363036 154.37549959 -150.6015625 150.86328125 C-150.8696875 150.10015625 -151.1378125 149.33703125 -151.4140625 148.55078125 C-151.8059375 147.33390625 -152.1978125 146.11703125 -152.6015625 144.86328125 C-152.86582031 144.1671875 -153.13007813 143.47109375 -153.40234375 142.75390625 C-158.00189525 129.06424586 -157.35655969 111.90160865 -151.1953125 98.89453125 C-145.64507803 88.52711215 -137.23791361 79.21408365 -126.6015625 73.86328125 C-125.6115625 73.86328125 -124.6215625 73.86328125 -123.6015625 73.86328125 C-123.64796875 73.14785156 -123.694375 72.43242187 -123.7421875 71.6953125 C-124.24920473 57.69801533 -119.66417098 46.34738932 -110.7578125 35.6484375 C-102.30684418 26.62598977 -91.21844016 20.23514132 -78.890625 18.4765625 C-76.54117541 18.08030049 -76.54117541 18.08030049 -75.3359375 16.3671875 C-75.01109375 15.72652344 -74.68625 15.08585937 -74.3515625 14.42578125 C-70.51881254 7.6850083 -65.08675399 1.19582514 -58.6015625 -3.13671875 C-57.27049628 -3.47899292 -55.93756171 -3.81423618 -54.6015625 -4.13671875 C-54.2715625 -4.79671875 -53.9415625 -5.45671875 -53.6015625 -6.13671875 C-35.12208932 -13.85527919 -16.44284568 -11.25925064 0 0 Z M-61.02734375 15.859375 C-63.99118203 19.63220139 -67.6015625 24.92980866 -67.6015625 29.86328125 C-68.8184375 29.94578125 -70.0353125 30.02828125 -71.2890625 30.11328125 C-81.08587656 31.23952917 -91.14981185 34.12397188 -98.6015625 40.86328125 C-98.6015625 41.52328125 -98.6015625 42.18328125 -98.6015625 42.86328125 C-99.5915625 43.19328125 -100.5815625 43.52328125 -101.6015625 43.86328125 C-111.30803509 56.21697363 -112.04087288 66.78029159 -111.6015625 81.86328125 C-112.5143396 82.11573608 -112.5143396 82.11573608 -113.44555664 82.37329102 C-119.52492609 84.10740172 -123.8554801 86.73747893 -128.6015625 90.86328125 C-129.28347656 91.43949219 -129.96539062 92.01570313 -130.66796875 92.609375 C-137.62642007 98.96044726 -143.23641372 108.08076118 -143.83984375 117.63671875 C-144.12712219 129.57183222 -143.36750736 141.15585018 -135.6015625 150.86328125 C-137.05691139 154.18446204 -138.92149909 156.43430455 -141.4140625 159.05078125 C-145.67873773 163.75046889 -150.6015625 169.24681209 -150.6015625 175.86328125 C-142.56967183 175.97908568 -134.53812934 176.06794959 -126.50561047 176.12234211 C-122.77582013 176.14844691 -119.0466005 176.18385868 -115.31713867 176.24047852 C-111.71852824 176.29477045 -108.12046698 176.32469514 -104.52147865 176.33766747 C-103.14786441 176.34691276 -101.77428056 176.36496728 -100.40089989 176.39193153 C-98.47874595 176.42817225 -96.55604039 176.43032319 -94.63354492 176.4309082 C-92.99140266 176.44756279 -92.99140266 176.44756279 -91.31608582 176.46455383 C-88.37627638 176.13215707 -88.37627638 176.13215707 -86.8495636 173.39030457 C-86.43772324 172.55638687 -86.02588287 171.72246918 -85.6015625 170.86328125 C-82.38460304 169.25480152 -79.0901436 169.40302868 -75.6015625 169.86328125 C-72.6015625 171.36328125 -72.6015625 171.36328125 -70.6015625 173.86328125 C-69.82079531 178.78211453 -69.83880661 180.68223987 -72.5390625 184.86328125 C-76.14969424 187.22124484 -78.34477954 187.53206135 -82.578125 187.29296875 C-84.6015625 186.86328125 -84.6015625 186.86328125 -86.6015625 185.05078125 C-87.6015625 182.86328125 -87.6015625 182.86328125 -88.6015625 179.86328125 C-109.3915625 179.86328125 -130.1815625 179.86328125 -151.6015625 179.86328125 C-155.73974617 192.27783225 -154.14296455 203.46957471 -148.57714844 215.04882812 C-143.40687051 224.66482051 -134.23560087 233.70381994 -124.6015625 238.86328125 C-120.90632298 239.58251333 -120.90632298 239.58251333 -117.6015625 239.86328125 C-117.92382812 240.69730469 -118.24609375 241.53132812 -118.578125 242.390625 C-122.27396314 254.93108343 -119.0920589 268.11994873 -113.4765625 279.55078125 C-107.25371758 289.85262513 -98.57866157 296.36964262 -87.0703125 299.56640625 C-80.98310138 300.91483909 -74.80849696 301.38582475 -68.6015625 301.86328125 C-67.6115625 305.49328125 -66.6215625 309.12328125 -65.6015625 312.86328125 C-64.9415625 312.86328125 -64.2815625 312.86328125 -63.6015625 312.86328125 C-63.21871094 313.97703125 -63.21871094 313.97703125 -62.828125 315.11328125 C-59.76475701 321.98146936 -52.42517989 327.84065225 -45.6015625 330.86328125 C-36.19020811 332.99415394 -23.10112181 333.97188806 -14.48046875 329.11328125 C-13.86042969 328.70078125 -13.24039063 328.28828125 -12.6015625 327.86328125 C-11.90933594 327.45078125 -11.21710938 327.03828125 -10.50390625 326.61328125 C-3.49034235 321.99874949 0.79827494 314.75682835 3.3984375 306.86328125 C3.57536136 304.15887851 3.65176046 301.56178163 3.62548828 298.86010742 C3.62578033 298.06933807 3.62607239 297.27856873 3.62637329 296.46383667 C3.6249847 293.8611945 3.60944579 291.2588419 3.59375 288.65625 C3.59001819 286.84735775 3.58717201 285.03846348 3.58517456 283.22956848 C3.5775513 278.47680038 3.55791404 273.7241552 3.5357666 268.97143555 C3.51528001 264.11834374 3.50616683 259.265232 3.49609375 254.41210938 C3.47466692 244.89577943 3.44054674 235.37954058 3.3984375 225.86328125 C-5.38976812 224.91400986 -5.38976812 224.91400986 -13.28051758 227.97119141 C-14.26120648 228.91428152 -15.20834103 229.89335805 -16.12109375 230.90234375 C-16.63540451 231.42081879 -17.14971527 231.93929382 -17.67961121 232.47348022 C-18.74751602 233.56300229 -19.79979756 234.66804995 -20.83618164 235.78759766 C-22.42357405 237.49853306 -24.05718577 239.15214354 -25.70507812 240.8046875 C-26.74263201 241.87596192 -27.77725103 242.95008838 -28.80859375 244.02734375 C-29.29278275 244.52134674 -29.77697174 245.01534973 -30.27583313 245.52432251 C-32.59046345 248.05802825 -33.57087671 249.66040128 -34.08862305 253.08349609 C-33.45672904 256.68988467 -31.79134533 257.31633812 -28.94140625 259.375 C-27.1059777 261.41377048 -27.16843757 262.78011033 -27.1640625 265.48828125 C-27.31940936 268.24686493 -27.71721362 270.21023462 -28.6015625 272.86328125 C-32.05903987 275.38989933 -35.45147378 275.37294127 -39.6015625 274.86328125 C-42.5390625 272.92578125 -42.5390625 272.92578125 -44.6015625 269.86328125 C-45.23572077 266.73699223 -45.24414518 263.98856972 -44.6015625 260.86328125 C-42.40324886 257.8311245 -41.15193056 257.04673727 -37.6015625 255.86328125 C-37.54049316 254.6714624 -37.47942383 253.47964355 -37.41650391 252.25170898 C-36.82765779 247.63726322 -34.76918933 244.90562819 -31.5625 241.6484375 C-30.78563339 240.8366227 -30.78563339 240.8366227 -29.99307251 240.00840759 C-28.89431742 238.8743806 -27.78604018 237.74951043 -26.66894531 236.63354492 C-24.99047499 234.93982018 -23.37600239 233.1984135 -21.7578125 231.44726562 C-20.67534541 230.34423978 -19.58950115 229.24451609 -18.5 228.1484375 C-18.03371185 227.63185074 -17.56742371 227.11526398 -17.08700562 226.58302307 C-10.86324142 220.62940968 -6.3067214 222.51029184 3.3984375 221.86328125 C3.3984375 198.76328125 3.3984375 175.66328125 3.3984375 151.86328125 C-0.8915625 151.86328125 -5.1815625 151.86328125 -9.6015625 151.86328125 C-10.2615625 150.54328125 -10.9215625 149.22328125 -11.6015625 147.86328125 C-12.84018367 146.31122169 -12.84018367 146.31122169 -14.28712463 144.87664795 C-15.10474022 144.03539871 -15.10474022 144.03539871 -15.93887329 143.17715454 C-16.83260147 142.27300308 -16.83260147 142.27300308 -17.74438477 141.35058594 C-18.37395584 140.70626617 -19.00352692 140.06194641 -19.6521759 139.39810181 C-21.73472572 137.27108012 -23.82531165 135.15223261 -25.91796875 133.03515625 C-26.63305037 132.31067543 -27.34813198 131.58619461 -28.08488274 130.83975983 C-31.86908999 127.00801567 -35.66018126 123.18322416 -39.45629883 119.36328125 C-43.37357313 115.4182681 -47.26441425 111.44820866 -51.15001011 107.47202682 C-54.1454531 104.41677936 -57.16067384 101.38164085 -60.18153191 98.35153961 C-61.624833 96.89665557 -63.0604916 95.4341478 -64.4881916 93.96395111 C-66.48915411 91.9069959 -68.51669977 89.88031548 -70.55297852 87.85839844 C-71.42545227 86.94210159 -71.42545227 86.94210159 -72.31555176 86.0072937 C-74.76252677 83.62644018 -76.44209092 82.01222702 -79.90089226 81.56790924 C-82.26405884 81.5783796 -82.26405884 81.5783796 -84.48998928 81.84782791 C-87.05781276 81.86662027 -88.4359002 81.20554754 -90.6015625 79.86328125 C-93.14823207 76.42527733 -93.11108111 73.0122185 -92.6015625 68.86328125 C-90.5390625 65.92578125 -90.5390625 65.92578125 -87.6015625 63.86328125 C-83.58316537 63.21746743 -81.36981672 63.52001873 -77.6640625 65.17578125 C-76.9834375 66.06265625 -76.3028125 66.94953125 -75.6015625 67.86328125 C-75.82971882 69.4251249 -76.09426638 70.98174631 -76.37817383 72.53442383 C-76.47391527 79.78478339 -72.32238165 83.45203572 -67.58068562 88.38718891 C-65.44453637 90.54959821 -63.28111612 92.68188851 -61.11328125 94.8125 C-59.61344467 96.31975314 -58.11524367 97.82863542 -56.61860657 99.33906555 C-53.48099359 102.49286502 -50.32442966 105.62599144 -47.15307617 108.74584961 C-43.0979006 112.73834828 -39.0941324 116.77821924 -35.10330486 120.83491802 C-32.02006223 123.95799125 -28.91099506 127.05428981 -25.79358864 130.14322853 C-24.30682488 131.62267655 -22.82812782 133.11027873 -21.35791588 134.60617638 C-13.81497375 142.82353661 -13.81497375 142.82353661 -4.16641235 147.75186157 C-0.83946878 147.87363089 -0.83946878 147.87363089 3.3984375 146.86328125 C3.3984375 142.57328125 3.3984375 138.28328125 3.3984375 133.86328125 C1.76648438 133.95029297 1.76648438 133.95029297 0.1015625 134.0390625 C-6.8670711 133.16261101 -11.28309418 126.90135705 -15.8515625 122.05078125 C-16.83948552 121.02769102 -17.82905711 120.00619 -18.8203125 118.98632812 C-20.64245424 117.10730898 -22.45182498 115.21863167 -24.25488281 113.32104492 C-26.50266088 110.86680131 -26.50266088 110.86680131 -28.88208008 108.99560547 C-31.38714288 105.88908573 -31.06813803 103.52201324 -31.03515625 99.578125 C-31.04475779 98.14648327 -31.0545285 96.71484266 -31.06445312 95.28320312 C-31.05583721 93.0359258 -31.03894597 90.78893228 -31.0168457 88.54174805 C-31.00234732 86.36580283 -31.01755462 84.19151093 -31.03515625 82.015625 C-31.02540771 80.71616943 -31.01565918 79.41671387 -31.00561523 78.07788086 C-31.25619879 74.68313567 -31.25619879 74.68313567 -34.07446289 73.04125977 C-34.90840576 72.65252686 -35.74234863 72.26379395 -36.6015625 71.86328125 C-36.9315625 71.20328125 -37.2615625 70.54328125 -37.6015625 69.86328125 C-38.2615625 69.86328125 -38.9215625 69.86328125 -39.6015625 69.86328125 C-39.34535566 68.25671365 -39.07100379 66.65303295 -38.7890625 65.05078125 C-38.56283203 63.71080078 -38.56283203 63.71080078 -38.33203125 62.34375 C-37.52478658 59.60257157 -36.91955768 58.50985713 -34.6015625 56.86328125 C-31.53361319 56.17385444 -28.68606293 56.29067697 -25.6015625 56.86328125 C-22.5390625 58.98828125 -22.5390625 58.98828125 -20.6015625 61.86328125 C-20.00218103 65.97332561 -20.53378368 69.24466831 -22.6015625 72.86328125 C-24.6796875 73.5 -24.6796875 73.5 -26.6015625 73.86328125 C-29.61697465 93.46889086 -29.61697465 93.46889086 -23.14585876 111.40672302 C-20.77751559 114.24789459 -18.23903387 116.83788434 -15.5390625 119.36328125 C-15.01883514 119.85667999 -14.49860779 120.35007874 -13.96261597 120.85842896 C-8.29309989 126.10767776 -4.63706559 129.1059651 3.3984375 128.86328125 C3.46798496 115.68506192 3.52127305 102.50688634 3.55387402 89.32852077 C3.56952179 83.20910084 3.59074416 77.08980659 3.62475586 70.97045898 C3.6573805 65.06362232 3.6752972 59.15690646 3.68306923 53.24998665 C3.68860712 50.99776369 3.69942125 48.74554724 3.71562767 46.49337578 C3.73744281 43.33585255 3.74040266 40.17882685 3.73901367 37.02124023 C3.7497995 36.09263184 3.76058533 35.16402344 3.771698 34.20727539 C3.73339795 26.14728947 1.46879003 20.26793707 -3.6015625 13.86328125 C-12.75198525 5.43089972 -20.46166949 2.21407888 -32.94921875 2.61328125 C-44.79150169 3.42387602 -52.7422445 7.22664921 -61.02734375 15.859375 Z " fill="#F3F6FA" transform="translate(419.6015625,344.13671875)"/>
<path d="M0 0 C23.12689917 -0.51832904 44.17659193 1.14407496 65.62988281 10.25537109 C67.81155651 11.19837251 67.81155651 11.19837251 70.88378906 12.08740234 C74.18511877 13.28788587 76.71708341 15.14293191 79.63378906 17.08740234 C82.85870986 18.33064381 82.85870986 18.33064381 85.63378906 19.08740234 C85.63378906 19.74740234 85.63378906 20.40740234 85.63378906 21.08740234 C86.51292969 21.34134766 87.39207031 21.59529297 88.29785156 21.85693359 C96.08406495 24.72889755 102.63097367 30.86923082 108.73925781 36.38037109 C110.01452369 37.52942509 111.30951144 38.65692081 112.62207031 39.76318359 C118.87628991 45.04587393 124.97966575 50.68383076 128.63378906 58.08740234 C129.29378906 58.56177734 129.95378906 59.03615234 130.63378906 59.52490234 C133.11953332 61.46689005 133.67018306 63.12246079 134.63378906 66.08740234 C134.96378906 67.07740234 135.29378906 68.06740234 135.63378906 69.08740234 C136.62378906 69.41740234 137.61378906 69.74740234 138.63378906 70.08740234 C139.35834541 71.72973006 140.01667979 73.40175755 140.63378906 75.08740234 C141.62849077 76.72852824 142.65025236 78.35351052 143.69628906 79.96240234 C146.27552477 84.1544448 147.42096543 87.19245878 147.63378906 92.08740234 C148.29378906 92.08740234 148.95378906 92.08740234 149.63378906 92.08740234 C150.58559241 95.18076324 151.53685746 98.27427441 152.48535156 101.36865234 C153.21980138 103.74687081 153.96369245 106.12220721 154.71972656 108.49365234 C161.14097464 128.77127786 161.89636305 149.30086901 159.82128906 170.39990234 C159.71627075 171.53588867 159.71627075 171.53588867 159.60913086 172.69482422 C159.12042762 177.07220201 158.12939365 180.83225901 156.4831543 184.91088867 C154.77719503 189.28243995 153.46953925 193.79749476 152.07128906 198.27490234 C151.46760055 200.20644923 150.86218875 202.13745853 150.25488281 204.06787109 C149.99118896 204.91244873 149.72749512 205.75702637 149.45581055 206.62719727 C148.61007765 209.15836757 147.64821613 211.61954187 146.63378906 214.08740234 C145.97378906 214.08740234 145.31378906 214.08740234 144.63378906 214.08740234 C144.51003906 214.62365234 144.38628906 215.15990234 144.25878906 215.71240234 C143.5117289 218.55123094 142.58075542 221.30963437 141.63378906 224.08740234 C140.97378906 224.08740234 140.31378906 224.08740234 139.63378906 224.08740234 C139.37210938 224.80154297 139.11042969 225.51568359 138.84082031 226.25146484 C125.98793962 256.44949522 93.45038175 277.6162009 64.63378906 290.08740234 C63.67859375 290.50248047 62.72339844 290.91755859 61.73925781 291.34521484 C57.67774314 293.04593695 55.11168388 294.08740234 50.63378906 294.08740234 C50.96378906 289.13740234 51.29378906 284.18740234 51.63378906 279.08740234 C52.78878906 278.59240234 53.94378906 278.09740234 55.13378906 277.58740234 C72.10995903 270.02164471 87.83864983 261.65602599 101.63378906 249.08740234 C102.14441895 248.63268555 102.65504883 248.17796875 103.18115234 247.70947266 C111.8846732 239.89281008 118.20136406 230.96223652 124.38720703 221.07275391 C125.41563888 219.43483621 126.47568364 217.81681298 127.54394531 216.20458984 C131.19763303 210.54184111 133.39380046 204.6497727 135.54394531 198.27490234 C136.35606308 195.8996762 137.20568815 193.66979861 138.25878906 191.39990234 C140.19612745 186.73267805 141.46074584 181.99704956 142.63378906 177.08740234 C142.84261719 176.24048828 143.05144531 175.39357422 143.26660156 174.52099609 C145.4672671 163.87411424 144.87018023 152.89728996 144.63378906 142.08740234 C144.61574219 140.81380859 144.59769531 139.54021484 144.57910156 138.22802734 C144.2867274 131.03906257 142.93024922 124.20372451 141.32128906 117.21240234 C141.02025269 115.89151611 141.02025269 115.89151611 140.71313477 114.54394531 C139.50218775 109.59787655 137.92582674 105.27273418 135.52807617 100.78027344 C134.50988503 98.85285401 133.76136444 96.90328839 133.07128906 94.83740234 C131.97606801 91.78854374 130.62317289 89.65702313 128.63378906 87.08740234 C128.24191406 86.09740234 127.85003906 85.10740234 127.44628906 84.08740234 C121.53721859 69.8753303 109.75833527 58.51584311 98.34179688 48.5637207 C97.07130984 47.44286411 95.84758123 46.26941985 94.63378906 45.08740234 C94.63378906 44.42740234 94.63378906 43.76740234 94.63378906 43.08740234 C94.0437207 42.9659082 93.45365234 42.84441406 92.84570312 42.71923828 C89.26840985 41.69738011 86.41437415 39.43038127 83.38378906 37.33740234 C80.80706701 35.57743268 78.223632 33.82800575 75.63378906 32.08740234 C74.99135254 31.64807373 74.34891602 31.20874512 73.68701172 30.75610352 C68.83923129 27.55854171 64.04462573 25.60359575 58.50878906 23.89990234 C57.35056641 23.52961914 57.35056641 23.52961914 56.16894531 23.15185547 C54.66613411 22.67182634 53.16161668 22.19709929 51.65527344 21.72827148 C49.95705969 21.1898885 48.27371708 20.60490894 46.59472656 20.00927734 C42.89809471 18.85834711 39.19393316 18.18435036 35.38378906 17.52490234 C27.88998741 16.21550152 27.88998741 16.21550152 25.63378906 15.08740234 C8.18424328 14.04213087 -9.53822363 14.02141592 -26.36621094 19.08740234 C-27.09727051 19.29107422 -27.82833008 19.49474609 -28.58154297 19.70458984 C-45.21423178 24.3673553 -60.94081718 32.16674623 -74.36621094 43.08740234 C-74.8944043 43.51166504 -75.42259766 43.93592773 -75.96679688 44.37304688 C-82.6748239 49.78367612 -89.04586602 55.26294122 -94.36621094 62.08740234 C-95.08292969 62.99103516 -95.79964844 63.89466797 -96.53808594 64.82568359 C-101.77425223 71.59931482 -106.28555004 78.56522021 -110.36621094 86.08740234 C-110.89085937 87.04259766 -111.41550781 87.99779297 -111.95605469 88.98193359 C-116.02776936 96.72129965 -119.01928033 104.68165924 -121.36621094 113.08740234 C-121.56520996 113.78736328 -121.76420898 114.48732422 -121.96923828 115.20849609 C-128.38532106 138.7919355 -128.31551485 168.16661131 -119.36621094 191.08740234 C-118.96789062 192.25142578 -118.56957031 193.41544922 -118.15917969 194.61474609 C-113.12719374 209.12988334 -105.1495753 227.80902306 -92.60058594 237.44287109 C-90.4663668 240.28624532 -90.92823925 243.67498838 -90.99121094 247.08740234 C-91.0013623 247.88122314 -91.01151367 248.67504395 -91.02197266 249.49291992 C-91.41648849 265.08241204 -94.37114249 279.09726546 -101.36621094 293.08740234 C-87.91491515 290.4616357 -75.59236416 286.14286536 -63.61621094 279.46240234 C-62.61497192 278.90431885 -62.61497192 278.90431885 -61.59350586 278.33496094 C-58.03835727 276.27746268 -55.11024731 274.15019041 -52.36621094 271.08740234 C-51.35300781 271.503125 -51.35300781 271.503125 -50.31933594 271.92724609 C-45.70997996 273.73806451 -41.024969 275.3322141 -36.35058594 276.96630859 C-33.36621094 278.08740234 -33.36621094 278.08740234 -32.36621094 279.08740234 C-32.12967571 281.61336494 -31.94447402 284.11847441 -31.80371094 286.64990234 C-31.76052734 287.36082031 -31.71734375 288.07173828 -31.67285156 288.80419922 C-31.56649317 290.56502146 -31.46582248 292.32618554 -31.36621094 294.08740234 C-35.81549075 293.2298314 -40.01504057 292.373534 -44.11621094 290.39990234 C-47.79649748 288.91363278 -48.66400155 288.97035641 -52.36621094 290.08740234 C-54.67442482 291.30562633 -56.88987413 292.5488984 -59.11621094 293.89990234 C-80.4281003 306.74971799 -106.61288114 312.21066269 -131.36621094 311.08740234 C-131.03621094 310.09740234 -130.70621094 309.10740234 -130.36621094 308.08740234 C-129.70621094 308.08740234 -129.04621094 308.08740234 -128.36621094 308.08740234 C-128.10324219 307.52021484 -127.84027344 306.95302734 -127.56933594 306.36865234 C-126.27599729 303.9163479 -124.76497739 301.81546512 -123.11621094 299.58740234 C-114.0504266 286.73321332 -109.03293794 272.6750878 -107.36621094 257.08740234 C-107.13417969 255.60433594 -107.13417969 255.60433594 -106.89746094 254.09130859 C-106.07200329 245.45839737 -109.7281215 240.67084738 -114.88574219 234.21630859 C-120.36621094 227.30315038 -120.36621094 227.30315038 -120.36621094 224.08740234 C-121.02621094 224.08740234 -121.68621094 224.08740234 -122.36621094 224.08740234 C-134.91824176 200.65446906 -141.80063887 175.45560246 -141.67871094 148.77490234 C-141.67452148 147.51033203 -141.67033203 146.24576172 -141.66601562 144.94287109 C-141.49225815 130.50990984 -139.00588283 117.76307859 -134.36621094 104.08740234 C-133.90947312 102.70882986 -133.4537957 101.32990573 -132.99902344 99.95068359 C-131.80064994 96.32528842 -130.58717179 92.70524947 -129.36621094 89.08740234 C-128.70621094 89.08740234 -128.04621094 89.08740234 -127.36621094 89.08740234 C-127.24890625 88.37068359 -127.13160156 87.65396484 -127.01074219 86.91552734 C-123.27329588 70.51606597 -108.95708742 54.61723405 -97.36621094 43.08740234 C-96.83801758 42.55663086 -96.30982422 42.02585937 -95.765625 41.47900391 C-85.82435456 31.58416088 -75.10486076 23.26410958 -62.44482422 17.13574219 C-60.29358583 16.05077418 -58.23988448 14.85109918 -56.16308594 13.63037109 C-38.87175425 3.96778562 -19.50623883 0.50647182 0 0 Z " fill="#F6F9FB" transform="translate(613.3662109375,350.91259765625)"/>
<path d="M0 0 C4.23154083 2.38056944 8.13570545 5.06579354 12 8 C13.29357422 8.96099609 13.29357422 8.96099609 14.61328125 9.94140625 C17.14435379 12.1245081 18.91280518 14.31849637 20.8125 17.0625 C21.41707031 17.91972656 22.02164063 18.77695312 22.64453125 19.66015625 C24 22 24 22 24 25 C22.906875 25.474375 21.81375 25.94875 20.6875 26.4375 C14.77035042 29.40129273 9.97699603 33.69217991 5 38 C3.74316406 39.07121094 3.74316406 39.07121094 2.4609375 40.1640625 C-13.4845567 54.08473204 -25.22658602 70.32646187 -35 89 C-35.48146484 89.90588867 -35.48146484 89.90588867 -35.97265625 90.83007812 C-39.96602052 98.44086233 -42.85148474 106.13033898 -45.25 114.375 C-45.48420654 115.17574951 -45.71841309 115.97649902 -45.9597168 116.80151367 C-49.97728071 131.38661033 -51.56100333 145.54636613 -51.4375 160.625 C-51.43346161 161.45415924 -51.42942322 162.28331848 -51.42526245 163.13760376 C-51.20157208 196.01614382 -42.99413671 228.74642388 -23.02392578 255.43701172 C-19.17417272 260.60260138 -16.78275447 264.33447908 -17.35546875 270.88671875 C-18.87834938 278.24269366 -20.63004209 286.26008418 -24 293 C-24.66 293 -25.32 293 -26 293 C-26.2784375 294.2065625 -26.2784375 294.2065625 -26.5625 295.4375 C-30.98455629 306.39650907 -41.92856221 317.03935314 -52 323 C-55 322 -55 322 -56.1328125 320.36328125 C-56.46023438 319.68652344 -56.78765625 319.00976562 -57.125 318.3125 C-57.45757812 317.64863281 -57.79015625 316.98476563 -58.1328125 316.30078125 C-60.51186285 309.9887963 -60.14088887 303.35445971 -60.12698364 296.71347046 C-60.12854363 295.57185506 -60.13010362 294.43023967 -60.13171089 293.25402987 C-60.13570149 289.42633884 -60.13253873 285.59868743 -60.12939453 281.77099609 C-60.13019928 279.0278668 -60.13249364 276.28473919 -60.13470459 273.54161072 C-60.1391499 266.8634749 -60.1381914 260.18535032 -60.13529195 253.50721405 C-60.13303344 248.08071201 -60.13272734 242.65421311 -60.13381577 237.22771072 C-60.133969 236.45535277 -60.13412223 235.68299481 -60.13428011 234.88723207 C-60.13459983 233.3182212 -60.13492405 231.74921033 -60.1352527 230.18019946 C-60.13810376 215.47028462 -60.13482612 200.76037602 -60.12945233 186.0504622 C-60.12498286 173.42491439 -60.12576213 160.79937577 -60.13037109 148.17382812 C-60.13572038 133.5133927 -60.13783098 118.85296273 -60.13475883 104.19252646 C-60.13444028 102.62990356 -60.13412591 101.06728065 -60.13381577 99.50465775 C-60.13366149 98.73580376 -60.13350721 97.96694977 -60.13334826 97.17479717 C-60.13248431 91.75292716 -60.13394335 86.33106061 -60.13629532 80.90919113 C-60.13909736 74.3046412 -60.1383464 67.70010315 -60.13301457 61.09555458 C-60.13038332 57.72496254 -60.12989955 54.3544068 -60.13266373 50.98381233 C-60.13538213 47.33337563 -60.13198554 43.68299533 -60.12698364 40.03256226 C-60.12921436 38.96273177 -60.13144509 37.89290128 -60.13374341 36.79065168 C-60.13113566 35.81452031 -60.12852791 34.83838895 -60.12584114 33.83267784 C-60.12567879 32.98991338 -60.12551644 32.14714892 -60.12534916 31.27884614 C-60.00324013 29.05890555 -59.61750863 27.13052036 -59 25 C-58.34 25 -57.68 25 -57 25 C-56.9175 23.7625 -56.835 22.525 -56.75 21.25 C-55.10966457 13.8450572 -48.76635963 8.54260803 -43 4 C-31.17097809 -3.47848231 -13.25079209 -4.97663336 0 0 Z " fill="#FBFCFD" transform="translate(509,338)"/>
<path d="M0 0 C0.66 0 1.32 0 2 0 C3.59375 1.73046875 3.59375 1.73046875 5.5 4.1875 C6.21285156 5.10015625 6.92570313 6.0128125 7.66015625 6.953125 C10.51314551 10.66820283 13.36575421 14.38357559 16.21240234 18.10351562 C19.66785903 22.60499843 23.23716224 27.0045333 26.84765625 31.3828125 C29.61547239 34.74839655 32.33586589 38.15028154 35.05078125 41.55859375 C36.31270982 43.13916561 37.58057475 44.71502364 38.85546875 46.28515625 C43.71668782 52.28901238 48.36365378 58.43829177 52.96386719 64.64306641 C53.45790039 65.30741699 53.95193359 65.97176758 54.4609375 66.65625 C55.12295166 67.55053711 55.12295166 67.55053711 55.79833984 68.46289062 C57.06040006 70.14144887 57.06040006 70.14144887 59 72 C59 72.99 59 73.98 59 75 C48.44 75 37.88 75 27 75 C27 98.76 27 122.52 27 147 C9.84 147 -7.32 147 -25 147 C-25 123.24 -25 99.48 -25 75 C-35.89 75 -46.78 75 -58 75 C-56.09020289 70.22550723 -53.90768238 67.29022915 -50.5625 63.5625 C-46.35468083 58.770085 -42.28182992 53.91611615 -38.375 48.875 C-34.97308543 44.49103936 -31.51259728 40.18188226 -27.9375 35.9375 C-24.1366643 31.41241057 -20.48685164 26.79265141 -16.91015625 22.09033203 C-12.98047194 16.93571075 -8.92636554 11.88444281 -4.84619141 6.84838867 C-2.16806019 3.59468804 -2.16806019 3.59468804 0 0 Z " fill="#FCFDFD" transform="translate(622,423)"/>
<path d="M0 0 C2.82266307 1.89165865 4.66315953 3.87564179 6 7 C5.78214844 8.30138916 5.56429688 9.60277832 5.33984375 10.94360352 C5.31769563 14.48449027 5.84097243 15.79663384 8.05334473 18.62583923 C10.58165195 21.08720696 13.15090084 23.44755868 15.81538391 25.75830078 C17.62730092 27.34182175 19.3962904 28.96306198 21.15856934 30.6015625 C26.16636038 35.2546991 31.1935662 39.87912829 36.35595703 44.36083984 C59.95980104 64.94468548 59.95980104 64.94468548 61.01304054 80.09261322 C61.31746355 89.89800712 61.45498691 100.54616541 54.79833984 108.3659668 C52.41380919 110.58711439 49.75356299 112.27254518 47 114 C44.18504573 116.64508634 41.61159442 119.37234528 39.1875 122.375 C37.08520651 124.85952867 34.91807263 127.01964004 32.4375 129.125 C28.48196422 132.48912558 24.79828025 136.08430395 21.125 139.75 C20.55322021 140.31734863 19.98144043 140.88469727 19.39233398 141.46923828 C16.98768048 143.88215273 14.89528961 146.15706559 13 149 C10.06402461 149.38384509 7.31972627 149.603843 4.375 149.6875 C3.57320313 149.72166016 2.77140625 149.75582031 1.9453125 149.79101562 C-0.03596318 149.87356878 -2.01796037 149.93845916 -4 150 C-4.99 151.98 -4.99 151.98 -6 154 C-6.66 154 -7.32 154 -8 154 C-8 154.66 -8 155.32 -8 156 C-16.49834983 156.89108911 -16.49834983 156.89108911 -19.77734375 154.9453125 C-22.29676312 152.24332651 -23.35207722 149.53325766 -23.625 145.9375 C-23 142 -23 142 -21.0625 139 C-16.96023512 136.32096987 -13.77404665 136.05037047 -9 137 C-5.9375 138.8125 -5.9375 138.8125 -4 141 C-4 141.99 -4 142.98 -4 144 C5.81198388 144.36533307 5.81198388 144.36533307 14.5 140.9375 C15.76196164 139.45469507 17.02342346 137.97043885 18.23266602 136.44433594 C22.16580184 131.66532906 26.57389982 127.70047838 31.24609375 123.67578125 C49.93769806 107.98150605 49.93769806 107.98150605 58.3125 86.0625 C58.03458327 70.64082512 45.31471069 60.15927241 35 50.125 C27.75900164 43.22097019 20.30247606 36.57122272 12.72558594 30.03924561 C12.01305664 29.42285217 11.30052734 28.80645874 10.56640625 28.17138672 C9.93549072 27.6297287 9.3045752 27.08807068 8.65454102 26.52999878 C7 25 7 25 4.625 22.0625 C1.0824523 19.27906966 -1.26828702 19.89934902 -5.62109375 20.15234375 C-8 20 -8 20 -11.0625 17.5625 C-11.701875 16.716875 -12.34125 15.87125 -13 15 C-13.33 14.67 -13.66 14.34 -14 14 C-14.58968059 6.92383292 -14.58968059 6.92383292 -12.125 3.0625 C-8.55165251 -0.40574904 -4.84279913 -1.06720944 0 0 Z " fill="#EBEEF7" transform="translate(337,451)"/>
<path d="M0 0 C4.39412426 1.02271904 7.09803969 3.18828239 9.88671875 6.671875 C12.06796251 11.03436251 11.19625449 16.83900167 11.23681641 21.68286133 C11.25331743 23.12508344 11.28053046 24.56722576 11.31884766 26.0090332 C11.67542069 39.50764816 11.67542069 39.50764816 8.61328125 44.03515625 C4.70874709 47.81103097 2.3613698 48.96348284 -3.05078125 49.046875 C-6.54521937 48.96979181 -7.95005877 48.76564111 -11.05078125 46.984375 C-16.7572292 40.58623639 -16.703294 34.68685623 -16.72412109 26.48950195 C-16.73818349 24.37408137 -16.80551943 22.26462045 -16.875 20.15039062 C-16.97674059 13.94843101 -16.99419865 8.75161709 -12.94921875 3.74609375 C-8.75035233 -0.14433019 -5.57587392 -0.36379604 0 0 Z " fill="#F7F9FB" transform="translate(626.11328125,599.328125)"/>
<path d="M0 0 C4.70588235 0.70588235 4.70588235 0.70588235 6 2 C6.13241142 3.72723342 6.23076852 5.45712778 6.3125 7.1875 C6.87939824 13.82708092 9.12299901 17.49536956 14.125 21.8125 C19.73050751 26.07756006 25.12697533 25.55531464 32 25 C36.83854773 23.79420318 39.96833945 21.53236145 42.875 17.5 C45.37623649 13.05988556 46.01400149 8.44812809 46.640625 3.44140625 C47 1 47 1 48 0 C49.66617115 -0.04063832 51.33388095 -0.042721 53 0 C54.99153078 3.98306157 53.78588825 8.75730257 53 13 C50.30004002 21.08819179 45.48972525 26.88841484 38.0703125 31.09375 C34.81533579 32.60249457 32.63378321 33 29 33 C29 35.64 29 38.28 29 41 C30.15628906 40.96519531 30.15628906 40.96519531 31.3359375 40.9296875 C32.33882812 40.91164063 33.34171875 40.89359375 34.375 40.875 C35.37273438 40.85179687 36.37046875 40.82859375 37.3984375 40.8046875 C40 41 40 41 42 43 C41.67 44.65 41.34 46.3 41 48 C31.1 48 21.2 48 11 48 C10 43 10 43 11 41 C14.96 41 18.92 41 23 41 C23 38.36 23 35.72 23 33 C21.88625 32.855625 20.7725 32.71125 19.625 32.5625 C16 32 16 32 14 31 C14 30.34 14 29.68 14 29 C13.443125 28.9175 12.88625 28.835 12.3125 28.75 C6.8162762 26.96744093 3.80680501 22.83931899 1 18 C-1.52811393 12.56455505 -1.43163662 6.89234182 -1 1 C-0.67 0.67 -0.34 0.34 0 0 Z " fill="#EAEEF3" transform="translate(597,629)"/>
<path d="M0 0 C0 0.33 0 0.66 0 1 C-0.9178125 0.979375 -1.835625 0.95875 -2.78125 0.9375 C-11.69165884 1.06533801 -11.69165884 1.06533801 -18.8125 5.9375 C-20.50257509 7.92306796 -21.83613032 9.67226065 -23 12 C-22.34 12.33 -21.68 12.66 -21 13 C-21.45439453 13.42297363 -21.90878906 13.84594727 -22.37695312 14.28173828 C-24.43369936 16.21349763 -26.46667689 18.16861344 -28.5 20.125 C-29.57314453 21.12273438 -29.57314453 21.12273438 -30.66796875 22.140625 C-34.80634968 26.07992732 -34.80634968 26.07992732 -36.65625 31.34765625 C-35.81573884 34.74472219 -34.08112172 35.51899261 -31.35546875 37.51953125 C-29.53810223 39.50449353 -29.44021421 40.83561742 -29.3125 43.5 C-29.5466654 47.19734846 -29.97183404 47.96533421 -32.4375 51 C-33.283125 51.66 -34.12875 52.32 -35 53 C-35.495 53.495 -35.495 53.495 -36 54 C-39.25 54.375 -39.25 54.375 -43 54 C-45.875 51.5625 -45.875 51.5625 -48 49 C-48.33 48.67 -48.66 48.34 -49 48 C-49.44175551 44.94557621 -49.4713427 42.05077859 -49 39 C-46.6875 35.9375 -46.6875 35.9375 -44 34 C-43.01 34 -42.02 34 -41 34 C-41.10642822 32.81341797 -41.21285645 31.62683594 -41.32250977 30.40429688 C-41.3075801 25.53200314 -39.1666755 22.89485066 -35.83984375 19.53125 C-35.29832169 18.96547241 -34.75679962 18.39969482 -34.1988678 17.81677246 C-33.04831534 16.63022703 -31.88691951 15.45411158 -30.71557617 14.28808594 C-28.95169241 12.51427231 -27.25815829 10.68860558 -25.56054688 8.8515625 C-17.41523076 0.4220717 -11.76971038 -1.85301134 0 0 Z " fill="#EBEDF7" transform="translate(423,566)"/>
<path d="M0 0 C0.495 1.485 0.495 1.485 1 3 C0.40461426 3.59014893 -0.19077148 4.18029785 -0.80419922 4.78833008 C-3.01650648 6.98357307 -5.22653704 9.1810759 -7.43505859 11.38012695 C-8.85991069 12.79749 -10.28736413 14.21223639 -11.71484375 15.62695312 C-12.61074219 16.51962891 -13.50664062 17.41230469 -14.4296875 18.33203125 C-15.25710449 19.15421143 -16.08452148 19.9763916 -16.93701172 20.82348633 C-19.13614738 23.02027402 -19.13614738 23.02027402 -21 26 C-23.93597539 26.38384509 -26.68027373 26.603843 -29.625 26.6875 C-30.82769531 26.73874023 -30.82769531 26.73874023 -32.0546875 26.79101562 C-34.03596318 26.87356878 -36.01796037 26.93845916 -38 27 C-38.66 28.32 -39.32 29.64 -40 31 C-40.66 31 -41.32 31 -42 31 C-42 31.66 -42 32.32 -42 33 C-50.49834983 33.89108911 -50.49834983 33.89108911 -53.77734375 31.9453125 C-56.29676312 29.24332651 -57.35207722 26.53325766 -57.625 22.9375 C-57 19 -57 19 -55.0625 16 C-50.95547034 13.31785818 -47.77856833 13.05811221 -43 14 C-39.9375 15.75 -39.9375 15.75 -38 18 C-38 19.32 -38 20.64 -38 22 C-27.25805613 22.51442895 -27.25805613 22.51442895 -17.875 18.3125 C-16.55998375 16.89632865 -15.27325867 15.4538299 -14 14 C-12.17111672 12.15094912 -10.31830799 10.32757205 -8.46533203 8.50268555 C-5.61887522 5.69264924 -2.81046589 2.84599145 0 0 Z " fill="#F2F1FA" transform="translate(371,574)"/>
<path d="M0 0 C2.79854209 1.87549354 4.5438148 3.96441394 6 7 C6.015625 9.1171875 6.015625 9.1171875 5.75 11.3125 C5.42502809 14.93718674 5.8838677 15.85256963 8.203125 18.796875 C10.7308538 21.29636102 13.29897797 23.68966151 16 26 C15.34 26.99 14.68 27.98 14 29 C13.67 29.66 13.34 30.32 13 31 C12.32195312 30.2059375 11.64390625 29.411875 10.9453125 28.59375 C5.9635133 22.64884814 5.9635133 22.64884814 -0.78125 19.4453125 C-2.46890047 19.56222804 -4.15419063 19.72534092 -5.83203125 19.94140625 C-8 20 -8 20 -11.0625 17.5625 C-11.701875 16.716875 -12.34125 15.87125 -13 15 C-13.33 14.67 -13.66 14.34 -14 14 C-14.58968059 6.92383292 -14.58968059 6.92383292 -12.125 3.0625 C-8.55165251 -0.40574904 -4.84279913 -1.06720944 0 0 Z " fill="#E7EFF8" transform="translate(337,451)"/>
<path d="M0 0 C3.74841407 0.36869647 5.92619177 0.97517035 8.734375 3.546875 C10.63682961 6.7727763 10.07721248 10.13068556 9.73046875 13.75390625 C9.8292974 16.91171684 10.72091244 18.07803692 12.8125 20.375 C9.32055359 21.2479866 7.24523745 21.25225513 3.8125 20.375 C2.31289178 20.30371581 0.81283184 20.24145029 -0.6875 20.1875 C-4.41320999 19.788536 -4.98295035 19.58453866 -7.75 16.75 C-9.4136241 12.84409995 -9.87425259 10.57182136 -9.1875 6.375 C-6.75 3.5 -6.75 3.5 -4.1875 1.375 C-3.1875 0.375 -3.1875 0.375 0 0 Z " fill="#E9F1F8" transform="translate(335.1875,406.625)"/>
<path d="M0 0 C3.18395986 5.52236261 3.36381636 11.96719969 4.125 18.1875 C4.25856903 19.26856018 4.25856903 19.26856018 4.39483643 20.37145996 C6.11471168 34.81496217 6.38565243 49.21639626 6.375 63.75 C6.37663147 64.80230804 6.37826294 65.85461609 6.37994385 66.93881226 C6.37791305 78.50410939 5.96580426 89.58747007 4 101 C3.84262107 102.36536036 3.69915286 103.73250103 3.578125 105.1015625 C2.28764175 118.95889458 -0.94144368 132.44366122 -4 146 C-5.95123149 142.43148054 -6.09829461 140.71678725 -5.3125 136.6875 C-5.11527344 135.64464844 -4.91804687 134.60179687 -4.71484375 133.52734375 C-4.47894531 132.36332031 -4.24304688 131.19929687 -4 130 C-3.72979579 128.6264343 -3.46028847 127.25273135 -3.19140625 125.87890625 C-2.47658238 122.24937421 -1.74261423 118.62395746 -1 115 C-0.34 115 0.32 115 1 115 C0.67 112.36 0.34 109.72 0 107 C0.33 107 0.66 107 1 107 C1 104.03 1 101.06 1 98 C1.66 98 2.32 98 3 98 C2.67 94.7 2.34 91.4 2 88 C2.66 88 3.32 88 4 88 C4.14988246 60.95198119 3.73349559 34.47985077 0.25952148 7.60522461 C0.0050253 5.05044686 -0.04605476 2.56545265 0 0 Z " fill="#76B4D5" transform="translate(865,451)"/>
<path d="M0 0 C2.5 1.5 2.5 1.5 5 4 C5.69059386 8.83415704 5.75252273 10.82104773 3.125 14.9375 C0.07983388 17.89310241 -1.49739231 18.12146582 -5.625 18.0625 C-6.85089844 18.04896484 -6.85089844 18.04896484 -8.1015625 18.03515625 C-8.72804688 18.02355469 -9.35453125 18.01195312 -10 18 C-10.33 17.34 -10.66 16.68 -11 16 C-10.34 15.67 -9.68 15.34 -9 15 C-9.66 14.01 -10.32 13.02 -11 12 C-10.81989972 8.63812807 -10.58112046 6.00081858 -8.875 3.0625 C-5.96905769 1.41579935 -3.26178195 1.81537083 0 2 C0 1.34 0 0.68 0 0 Z " fill="#E5EAF7" transform="translate(345,514)"/>
<path d="M0 0 C0.99 0.66 1.98 1.32 3 2 C3.40373601 5.16259871 3.54458662 7.14012639 1.8125 9.875 C-0.65507108 11.40659584 -2.14519831 11.42822025 -5 11 C-6.8125 9.8125 -6.8125 9.8125 -8 8 C-8.4334014 5.11065736 -8.42525784 3.64907776 -6.8125 1.1875 C-4.37235669 -0.41121458 -2.86722793 -0.35840349 0 0 Z " fill="#826BE5" transform="translate(326,592)"/>
<path d="M0 0 C3 0.25 3 0.25 5 2.25 C5.25 5.75 5.25 5.75 5 9.25 C3 11.25 3 11.25 0.5625 11.5625 C-2 11.25 -2 11.25 -3.8125 10.125 C-5.52849028 7.41554166 -5.333728 5.38704316 -5 2.25 C-3 0.25 -3 0.25 0 0 Z " fill="#5B7CDC" transform="translate(340,516.75)"/>
<path d="M0 0 C3 0.25 3 0.25 5 2.25 C5.3125 5.75 5.3125 5.75 5 9.25 C1.79191085 11.3887261 0.72301503 11.72730962 -3 11.25 C-5.30163882 7.79754176 -5.34490322 6.30261287 -5 2.25 C-3 0.25 -3 0.25 0 0 Z " fill="#42ADE5" transform="translate(390,403.75)"/>
<path d="M0 0 C-0.33 0.66 -0.66 1.32 -1 2 C-1.74161377 1.99476318 -2.48322754 1.98952637 -3.24731445 1.98413086 C-6.60236771 1.96336386 -9.95740744 1.9503407 -13.3125 1.9375 C-14.47974609 1.92912109 -15.64699219 1.92074219 -16.84960938 1.91210938 C-17.96787109 1.90888672 -19.08613281 1.90566406 -20.23828125 1.90234375 C-21.26993408 1.89710693 -22.30158691 1.89187012 -23.36450195 1.88647461 C-26.10946274 1.88365 -26.10946274 1.88365 -29 3 C-30.41668949 3.01921866 -31.83432414 2.99442403 -33.25 2.9375 C-37.49406017 2.87559313 -40.92804851 3.77073163 -45 5 C-48.4375 5.125 -48.4375 5.125 -51 5 C-51.33 4.34 -51.66 3.68 -52 3 C-34.66373864 -0.50059124 -17.59401528 -0.31968254 0 0 Z " fill="#5FB0D7" transform="translate(510,154)"/>
<path d="M0 0 C3.0625 0.25 3.0625 0.25 6.0625 2.25 C6.49816323 5.08181098 6.45934676 6.61063578 4.9375 9.0625 C2.20262639 10.79458662 0.22509871 10.65373601 -2.9375 10.25 C-5.08665785 7.02626323 -5.32036803 5.98296326 -4.9375 2.25 C-2.9375 0.25 -2.9375 0.25 0 0 Z " fill="#6666E2" transform="translate(382.9375,604.75)"/>
<path d="M0 0 C0.33 0 0.66 0 1 0 C1.08148509 6.10418091 0.82009074 12.02043327 0.16015625 18.0859375 C0.07374374 18.90953766 -0.01266876 19.73313782 -0.10169983 20.58169556 C-0.28355632 22.30454112 -0.46769798 24.02714691 -0.65405273 25.74951172 C-0.93894469 28.38838176 -1.21509167 31.02806623 -1.49023438 33.66796875 C-1.66875669 35.34901301 -1.84777531 37.03000466 -2.02734375 38.7109375 C-2.10967758 39.49842377 -2.19201141 40.28591003 -2.27684021 41.09725952 C-2.61775187 44.21423358 -3.00510996 47.01532987 -4 50 C-4.33 50 -4.66 50 -5 50 C-4.70708988 34.75087261 -4.32853671 19.92414558 -1 5 C-0.66368873 3.33393169 -0.3290728 1.66751311 0 0 Z " fill="#2F4587" transform="translate(159,452)"/>
<path d="M0 0 C3.0625 0.3125 3.0625 0.3125 4.9375 1.5 C6.44582602 3.93008081 6.42273622 5.50265752 6.0625 8.3125 C4.0625 10.3125 4.0625 10.3125 1.125 10.625 C-1.9375 10.3125 -1.9375 10.3125 -3.8125 9.125 C-5.32082602 6.69491919 -5.29773622 5.12234248 -4.9375 2.3125 C-2.9375 0.3125 -2.9375 0.3125 0 0 Z " fill="#5A8EDB" transform="translate(331.9375,455.6875)"/>
<path d="M0 0 C6.57692308 0.57692308 6.57692308 0.57692308 8 2 C8.1875 4.9375 8.1875 4.9375 8 8 C6 10 6 10 3.0625 10.3125 C0 10 0 10 -1.9375 8.8125 C-3 7 -3 7 -2.8125 4.4375 C-2 2 -2 2 0 0 Z " fill="#4E9FE2" transform="translate(333,412)"/>
<path d="M0 0 C0 0.33 0 0.66 0 1 C-0.969375 1.12375 -1.93875 1.2475 -2.9375 1.375 C-4.4534375 1.684375 -4.4534375 1.684375 -6 2 C-6.33 2.66 -6.66 3.32 -7 4 C-5.35 4 -3.7 4 -2 4 C-2 4.33 -2 4.66 -2 5 C-4.31 5.66 -6.62 6.32 -9 7 C-9.15149298 10.62885324 -9.15149298 10.62885324 -8 14 C-8.66 14.66 -9.32 15.32 -10 16 C-10 16.99 -10 17.98 -10 19 C-12.85807336 16.14192664 -14.31732129 14.01893158 -14.5 10 C-14.30170354 5.96542976 -12.92149301 3.83556675 -10 1 C-6.78548731 -0.60725635 -3.56387464 -0.05748185 0 0 Z " fill="#DAE6F5" transform="translate(337,451)"/>
<path d="M0 0 C12.51914881 -0.40602645 25.05722447 1.05197503 37 5 C37.66 5.66 38.32 6.32 39 7 C36.1875 7.625 36.1875 7.625 33 8 C32.01 7.34 31.02 6.68 30 6 C25.09991682 3.94880239 21.21347441 3.91310876 16 4 C15.34 3.67 14.68 3.34 14 3 C12.7625 3.020625 11.525 3.04125 10.25 3.0625 C6.48261088 3.12437318 3.52341935 2.40936774 0 1 C0 0.67 0 0.34 0 0 Z " fill="#7EC8E6" transform="translate(558,157)"/>
<path d="M0 0 C2.41804344 0.01754693 4.79853275 0.09965214 7.2109375 0.234375 C7.93487701 0.27306702 8.65881653 0.31175903 9.4046936 0.35162354 C10.93988269 0.43622415 12.47490706 0.52385887 14.00976562 0.61425781 C16.35755698 0.74899893 18.70578406 0.86311273 21.0546875 0.9765625 C22.54434381 1.06122551 24.03393059 1.14712286 25.5234375 1.234375 C26.57825821 1.28147614 26.57825821 1.28147614 27.65438843 1.32952881 C30.64257741 1.52522792 32.5744642 1.66519025 34.96728516 3.54785156 C35.478479 4.26666504 35.478479 4.26666504 36 5 C35.3512793 4.9285376 34.70255859 4.8570752 34.03417969 4.78344727 C24.43134213 3.84560617 14.88580955 3.88689577 5.25 3.9375 C3.57031384 3.94252803 1.89062622 3.94708862 0.2109375 3.95117188 C-3.85941196 3.96206736 -7.92968929 3.97925916 -12 4 C-12 3.67 -12 3.34 -12 3 C-10.82630859 2.80083984 -10.82630859 2.80083984 -9.62890625 2.59765625 C-8.61699219 2.42105469 -7.60507812 2.24445313 -6.5625 2.0625 C-5.55316406 1.88847656 -4.54382813 1.71445312 -3.50390625 1.53515625 C-1.0712562 1.25248903 -1.0712562 1.25248903 0 0 Z " fill="#63B0D8" transform="translate(614,348)"/>
<path d="M0 0 C0.33 0 0.66 0 1 0 C1.41399606 18.62557658 0.50126845 36.52431854 -2 55 C-2.33 55 -2.66 55 -3 55 C-3.33 51.37 -3.66 47.74 -4 44 C-3.67 44 -3.34 44 -3 44 C-3 41.03 -3 38.06 -3 35 C-2.34 35 -1.68 35 -1 35 C-1.33 31.7 -1.66 28.4 -2 25 C-1.34 25 -0.68 25 0 25 C0 16.75 0 8.5 0 0 Z " fill="#5CA8D0" transform="translate(869,514)"/>
<path d="M0 0 C0.66 0.33 1.32 0.66 2 1 C-1.17426866 4.24863876 -4.3584277 7.48713431 -7.55200195 10.71679688 C-8.63613297 11.81597853 -9.71755168 12.91784243 -10.79614258 14.02246094 C-12.35045744 15.61332262 -13.91439575 17.19415973 -15.48046875 18.7734375 C-15.95775925 19.26621185 -16.43504974 19.75898621 -16.92680359 20.26669312 C-19.74774135 23.08902015 -22.18201969 24.80707039 -26 26 C-21.01441374 19.96481663 -15.57189735 14.49242497 -10 9 C-9.13117188 8.12214844 -8.26234375 7.24429688 -7.3671875 6.33984375 C-5.03245573 4.03208083 -2.59745143 2.00374825 0 0 Z " fill="#6E81D9" transform="translate(381,568)"/>
<path d="M0 0 C3.26271105 0.53233707 4.99658894 1.99393435 7.2265625 4.36328125 C8.58095918 7.0720746 8.29157701 9.37261393 8.2265625 12.36328125 C7.8965625 12.36328125 7.5665625 12.36328125 7.2265625 12.36328125 C7.2265625 10.71328125 7.2265625 9.06328125 7.2265625 7.36328125 C4.89580321 8.32193634 4.89580321 8.32193634 3.2265625 11.36328125 C3.0203125 10.41453125 2.8140625 9.46578125 2.6015625 8.48828125 C1.52232674 5.09692875 1.52232674 5.09692875 -1.7734375 3.98828125 C-4.58902886 3.2952965 -4.58902886 3.2952965 -6.7734375 3.36328125 C-7.7634375 3.36328125 -8.7534375 3.36328125 -9.7734375 3.36328125 C-6.78707976 -0.22225017 -4.46427536 -0.13814533 0 0 Z " fill="#EDF6FA" transform="translate(391.7734375,399.63671875)"/>
<path d="M0 0 C0.66 0.66 1.32 1.32 2 2 C6.05261287 2.34490322 7.54754176 2.30163882 11 0 C11 0.66 11 1.32 11 2 C11.99 2.33 12.98 2.66 14 3 C11.22332332 6.3656687 9.82332657 7.87000107 5.4375 8.5625 C1.55858118 7.92776783 0.37945087 7.04569711 -2 4 C-1.34 2.68 -0.68 1.36 0 0 Z " fill="#E0DEF4" transform="translate(378,612)"/>
<path d="M0 0 C0.66 0 1.32 0 2 0 C0.36331533 15.35697748 0.36331533 15.35697748 -0.93359375 17.65234375 C-2.54882953 21.20822911 -3.00137417 24.9127921 -3.625 28.75 C-3.7590625 29.54277344 -3.893125 30.33554687 -4.03125 31.15234375 C-4.35987298 33.10060858 -4.68070705 35.05018439 -5 37 C-5.33 37 -5.66 37 -6 37 C-6.35326801 29.653837 -5.01210377 22.87162449 -3.5625 15.6875 C-3.21735352 13.91922852 -3.21735352 13.91922852 -2.86523438 12.11523438 C-1.16462054 3.49386161 -1.16462054 3.49386161 0 0 Z " fill="#5A6DA1" transform="translate(161,437)"/>
<path d="M0 0 C3.77619421 5.66429132 5.06145608 11.82993243 6.625 18.375 C6.85445312 19.29539062 7.08390625 20.21578125 7.3203125 21.1640625 C8.53991514 26.24574016 9.27348964 30.77490845 9 36 C8.34 36 7.68 36 7 36 C7.020625 35.278125 7.04125 34.55625 7.0625 33.8125 C7.00117416 31.05283699 6.55767935 28.69806838 6 26 C5.76990234 24.58460938 5.76990234 24.58460938 5.53515625 23.140625 C5.37917969 22.18671875 5.22320313 21.2328125 5.0625 20.25 C4.90910156 19.28578125 4.75570312 18.3215625 4.59765625 17.328125 C4.40042969 16.55984375 4.20320312 15.7915625 4 15 C3.34 14.67 2.68 14.34 2 14 C1.40234375 11.78515625 1.40234375 11.78515625 0.9375 9.0625 C0.33194533 5.41227791 0.33194533 5.41227791 -1 2 C-0.67 1.34 -0.34 0.68 0 0 Z " fill="#6DBDE2" transform="translate(854,405)"/>
<path d="M0 0 C-1 2 -1 2 -2.85546875 2.7109375 C-3.62503906 2.93007813 -4.39460938 3.14921875 -5.1875 3.375 C-14.10206641 6.25293089 -19.02667195 12.04439134 -25 19 C-25 14.70115333 -22.88011808 13.15687955 -20.07421875 10.06640625 C-14.21030644 4.22458024 -8.50459474 -0.38657249 0 0 Z " fill="#44C3ED" transform="translate(381,348)"/>
<path d="M0 0 C0.99 0.33 1.98 0.66 3 1 C2.06558465 2.27310312 1.12732889 3.543388 0.1875 4.8125 C-0.59560547 5.87404297 -0.59560547 5.87404297 -1.39453125 6.95703125 C-2.84252498 8.79961207 -4.23101505 10.46364869 -6 12 C-6.66 12 -7.32 12 -8 12 C-8 12.66 -8 13.32 -8 14 C-12.35294118 18 -12.35294118 18 -16 18 C-14.86005149 14.58015446 -14.26203606 14.28111261 -11.375 12.375 C-6.60236283 8.96351206 -3.37678879 4.74860924 0 0 Z " fill="#415496" transform="translate(429,666)"/>
<path d="M0 0 C3 0 3 0 5.1875 1.875 C7 4 7 4 7 6 C8.0828125 6.4021875 8.0828125 6.4021875 9.1875 6.8125 C12 8 12 8 14.28125 9.46875 C17.27834058 11.15676653 19.96773193 11.91563045 23.3125 12.6875 C24.38113281 12.93886719 25.44976562 13.19023438 26.55078125 13.44921875 C27.35902344 13.63097656 28.16726563 13.81273437 29 14 C29 14.33 29 14.66 29 15 C18.86598362 14.95515922 10.02031629 11.31094122 2.75 4.1875 C0 1.22142857 0 1.22142857 0 0 Z " fill="#8F6DED" transform="translate(311,629)"/>
<path d="M0 0 C0.66 0.33 1.32 0.66 2 1 C0.27538679 2.92093521 -1.45442609 4.836722 -3.1875 6.75 C-3.67025391 7.28882813 -4.15300781 7.82765625 -4.65039062 8.3828125 C-7.56162205 11.58712091 -10.52706501 14.3841879 -14 17 C-14.66 16.67 -15.32 16.34 -16 16 C-11.03093773 10.1719243 -5.90436923 4.8836671 0 0 Z " fill="#4588BF" transform="translate(536,395)"/>
<path d="M0 0 C0.66 0.33 1.32 0.66 2 1 C-1.56896971 5.70455098 -6.46590266 6.78046603 -12 8 C-12.99 8 -13.98 8 -15 8 C-15 8.66 -15 9.32 -15 10 C-16.65 10 -18.3 10 -20 10 C-16.72139113 7.30944629 -13.29297995 5.62071219 -9.4375 3.875 C-8.30183594 3.35679687 -7.16617187 2.83859375 -5.99609375 2.3046875 C-3 1 -3 1 0 0 Z " fill="#6EA7CF" transform="translate(372,181)"/>
<path d="M0 0 C0.33 1.32 0.66 2.64 1 4 C0.55269531 4.37511719 0.10539062 4.75023437 -0.35546875 5.13671875 C-3.2956094 7.62549453 -6.0825615 10.08631429 -8.75 12.875 C-11 15 -11 15 -14 15 C-9.53648711 9.77674023 -4.9255107 4.79077028 0 0 Z " fill="#5A87B9" transform="translate(259,257)"/>
<path d="M0 0 C0.33 0 0.66 0 1 0 C0.58918971 5.85404658 -0.4622599 11.33569833 -1.9375 17 C-2.10733398 17.6710376 -2.27716797 18.3420752 -2.45214844 19.03344727 C-2.90301038 20.70786266 -3.44473418 22.35725131 -4 24 C-4.66 24.33 -5.32 24.66 -6 25 C-5.79464941 15.85256474 -3.33116666 8.42010761 0 0 Z " fill="#3A5693" transform="translate(168,411)"/>
<path d="M0 0 C1.76165463 3.52330927 0.0099899 7.33733547 -1 11 C-1.91932718 13.70889126 -2.93689441 16.34223603 -4 19 C-4.66 19 -5.32 19 -6 19 C-6.33 19.66 -6.66 20.32 -7 21 C-6.36591429 16.30920682 -5.11470488 12.13263233 -3.5 7.6875 C-2.83484375 5.83705078 -2.83484375 5.83705078 -2.15625 3.94921875 C-1 1 -1 1 0 0 Z " fill="#5C77A9" transform="translate(179,377)"/>
<path d="M0 0 C0.5775 0.20625 1.155 0.4125 1.75 0.625 C0.76 0.625 -0.23 0.625 -1.25 0.625 C-1.58 1.615 -1.91 2.605 -2.25 3.625 C-8.18339846 6.42987927 -13.73754519 7.23798937 -20.25 7.625 C-17.76736461 5.14236461 -15.7149175 4.67025535 -12.375 3.625 C-8.09466043 2.28847557 -8.09466043 2.28847557 -4.0078125 0.4765625 C-2.25 -0.375 -2.25 -0.375 0 0 Z " fill="#68A7D0" transform="translate(394.25,173.375)"/>
<path d="M0 0 C6.61242722 1.82221376 12.80520671 4.05223604 19 7 C19 7.66 19 8.32 19 9 C15.33541889 8.3403754 11.89398047 7.40411721 8.375 6.1875 C7.43398438 5.87167969 6.49296875 5.55585937 5.5234375 5.23046875 C2.7416127 3.87400619 1.62168706 2.59578768 0 0 Z " fill="#34337B" transform="translate(367,838)"/>
<path d="M0 0 C0.66 0.33 1.32 0.66 2 1 C-3.28 6.28 -8.56 11.56 -14 17 C-14 12.95607032 -12.51908749 11.99868382 -9.8125 9.0625 C-9.03519531 8.20785156 -8.25789063 7.35320312 -7.45703125 6.47265625 C-5.09786332 4.09848566 -2.65532732 2.0327639 0 0 Z " fill="#D6E3EF" transform="translate(319,371)"/>
<path d="M0 0 C0.33 0.99 0.66 1.98 1 3 C-1.42449738 5.67874678 -3.86663188 8.34076414 -6.3125 11 C-7.00279297 11.763125 -7.69308594 12.52625 -8.40429688 13.3125 C-9.07138672 14.034375 -9.73847656 14.75625 -10.42578125 15.5 C-11.03848877 16.1703125 -11.65119629 16.840625 -12.2824707 17.53125 C-14 19 -14 19 -17 19 C-16.52691406 18.55011719 -16.05382812 18.10023438 -15.56640625 17.63671875 C-9.89833878 12.12333539 -4.91427465 6.18834586 0 0 Z " fill="#CED6DE" transform="translate(787,741)"/>
<path d="M0 0 C4.41599467 0.58835857 8.15109365 1.70215899 12.25 3.4375 C13.28640625 3.86933594 14.3228125 4.30117187 15.390625 4.74609375 C18 6 18 6 20 8 C18.58194169 7.71517632 17.16559621 7.42181856 15.75 7.125 C14.96109375 6.96257812 14.1721875 6.80015625 13.359375 6.6328125 C11.02473548 6.00663435 9.14638463 5.09078563 7 4 C5.00889599 3.61709538 3.00899487 3.27395385 1 3 C0.67 2.01 0.34 1.02 0 0 Z " fill="#6BC3E6" transform="translate(641,178)"/>
<path d="M0 0 C7.26 0.33 14.52 0.66 22 1 C22 1.33 22 1.66 22 2 C14.31068715 3.06059488 6.75493514 3.09928082 -1 3 C-0.67 2.01 -0.34 1.02 0 0 Z " fill="#B2BED8" transform="translate(483,659)"/>
<path d="M0 0 C0.66 0 1.32 0 2 0 C0.62820313 7.48252838 -1.92163279 14.05604954 -5 21 C-6.71578581 17.56842837 -4.70581722 14.00115791 -3.625 10.5 C-3.39039063 9.71496094 -3.15578125 8.92992187 -2.9140625 8.12109375 C-1.16703869 2.33407738 -1.16703869 2.33407738 0 0 Z " fill="#5798C3" transform="translate(847,633)"/>
<path d="M0 0 C0.66 0.33 1.32 0.66 2 1 C-0.86550351 4.96762024 -3.67733819 7.65855818 -8 10 C-9.32 9.67 -10.64 9.34 -12 9 C-8.04 6.03 -4.08 3.06 0 0 Z " fill="#548EBF" transform="translate(307,217)"/>
<path d="M0 0 C6.36416924 1.56752937 12.71356657 3.14264467 19 5 C19 5.33 19 5.66 19 6 C5.01485528 5.58501054 5.01485528 5.58501054 0 1 C0 0.67 0 0.34 0 0 Z " fill="#8264ED" transform="translate(368,670)"/>
<path d="M0 0 C-7.02680781 2.87217429 -13.39845954 4.67021516 -21 5 C-16.11119119 0.11119119 -6.52165635 -1.83551948 0 0 Z " fill="#72B2D8" transform="translate(434,163)"/>
<path d="M0 0 C1.70334889 2.57988975 2.02353803 3.7861484 1.6796875 6.91015625 C1.41414062 7.95042969 1.14859375 8.99070312 0.875 10.0625 C0.62492188 11.10535156 0.37484375 12.14820313 0.1171875 13.22265625 C-1.11663282 16.28995082 -2.20460895 17.32392528 -5 19 C-4.80664062 18.29875 -4.61328125 17.5975 -4.4140625 16.875 C-2.874383 11.26507866 -1.38582343 5.64989553 0 0 Z " fill="#63A8D0" transform="translate(769,534)"/>
<path d="M0 0 C0.33 0.66 0.66 1.32 1 2 C-3.70461323 3.86132673 -7.8757696 4.2509496 -12.875 4.125 C-13.56335938 4.11597656 -14.25171875 4.10695313 -14.9609375 4.09765625 C-16.64077838 4.07432513 -18.32043746 4.03846326 -20 4 C-20 3.67 -20 3.34 -20 3 C-13.4 2.01 -6.8 1.02 0 0 Z " fill="#314687" transform="translate(577,862)"/>
<path d="M0 0 C0.66 0 1.32 0 2 0 C0.48757374 3.84981229 -1.53832341 5.76666026 -5 8 C-7.76133953 8.28614917 -10.08145612 8.38589883 -12.8125 8.25 C-13.50537109 8.23195313 -14.19824219 8.21390625 -14.91210938 8.1953125 C-16.60867664 8.14851064 -18.30452476 8.07677624 -20 8 C-20 7.67 -20 7.34 -20 7 C-18.55367188 6.92652344 -18.55367188 6.92652344 -17.078125 6.8515625 C-15.81484375 6.77679687 -14.5515625 6.70203125 -13.25 6.625 C-11.99703125 6.55539062 -10.7440625 6.48578125 -9.453125 6.4140625 C-6.37127852 6.04451982 -4.54140448 5.71056071 -2 4 C-0.73195434 1.9664052 -0.73195434 1.9664052 0 0 Z " fill="#6E65DE" transform="translate(353,587)"/>
<path d="M0 0 C-2.784293 2.784293 -5.886863 2.94910069 -9.625 3.625 C-10.33140625 3.7590625 -11.0378125 3.893125 -11.765625 4.03125 C-13.50911918 4.36110025 -15.25440389 4.68146056 -17 5 C-17 4.34 -17 3.68 -17 3 C-14.92085336 2.29994051 -12.83648414 1.61537756 -10.75 0.9375 C-9.58984375 0.55464844 -8.4296875 0.17179688 -7.234375 -0.22265625 C-4.19922915 -0.95211763 -2.84296787 -1.11889082 0 0 Z " fill="#3E619E" transform="translate(532,656)"/>
<path d="M0 0 C5.28 0 10.56 0 16 0 C15.67 0.66 15.34 1.32 15 2 C12.28553021 2.31241455 9.66090639 2.51336592 6.9375 2.625 C6.17888672 2.66367187 5.42027344 2.70234375 4.63867188 2.7421875 C2.75952805 2.83673562 0.87979664 2.91946756 -1 3 C-0.67 2.01 -0.34 1.02 0 0 Z " fill="#6E62DC" transform="translate(333,600)"/>
<path d="M0 0 C0.99 0.33 1.98 0.66 3 1 C1.61392377 2.46761013 0.21568805 3.92374189 -1.1875 5.375 C-1.96480469 6.18710937 -2.74210937 6.99921875 -3.54296875 7.8359375 C-5.987055 9.98859852 -7.92616557 11.00632706 -11 12 C-7.49102731 7.81576108 -3.91939465 3.80411834 0 0 Z " fill="#8185DC" transform="translate(366,582)"/>
<path d="M0 0 C-0.33 0.66 -0.66 1.32 -1 2 C-2.11375 1.979375 -3.2275 1.95875 -4.375 1.9375 C-7.83215921 1.73619282 -7.83215921 1.73619282 -10 3 C-12.55807762 2.91089842 -15.0762601 2.76705754 -17.625 2.5625 C-18.33140625 2.51029297 -19.0378125 2.45808594 -19.765625 2.40429688 C-21.51079987 2.27458793 -23.25545725 2.13795046 -25 2 C-25 1.67 -25 1.34 -25 1 C-16.64380043 0.24524649 -8.39004715 -0.13605482 0 0 Z " fill="#C8CAD1" transform="translate(551,869)"/>
<path d="M0 0 C2.81191561 2.81191561 3.53516103 6.16519078 4.6875 9.875 C4.92533203 10.59558594 5.16316406 11.31617188 5.40820312 12.05859375 C6.58394389 15.80303502 7.1851875 18.25823079 6 22 C6 21.34 6 20.68 6 20 C5.34 20 4.68 20 4 20 C3.896875 18.845 3.79375 17.69 3.6875 16.5 C3.22361288 12.65246569 2.15261629 9.40605877 0.62109375 5.859375 C0 4 0 4 0 0 Z " fill="#6DB6DB" transform="translate(749,451)"/>
<path d="M0 0 C0.66 0.33 1.32 0.66 2 1 C-0.36292656 3.52588702 -1.66462511 4.88820837 -5 6 C-5.928125 6.99 -5.928125 6.99 -6.875 8 C-9.28751935 10.27060644 -10.76077175 10.64008575 -14 11 C-11.14325205 7.98306057 -8.17651069 5.59445469 -4.75 3.25 C-3.85796875 2.63640625 -2.9659375 2.0228125 -2.046875 1.390625 C-1.03367187 0.70226562 -1.03367187 0.70226562 0 0 Z " fill="#6199C5" transform="translate(323,206)"/>
<path d="M0 0 C1.9375 0.3125 1.9375 0.3125 4 1 C4.33 1.99 4.66 2.98 5 4 C6.175625 4.4640625 6.175625 4.4640625 7.375 4.9375 C10.35103635 6.14208614 11.31000453 7.33158609 13 10 C9.39811284 9.40912862 7.49874402 7.98667144 4.8125 5.5625 C4.11769531 4.94503906 3.42289062 4.32757812 2.70703125 3.69140625 C1 2 1 2 0 0 Z " fill="#3F3880" transform="translate(267,773)"/>
<path d="M0 0 C0.66 0 1.32 0 2 0 C1.44854729 5.23880078 0.57077907 9.97350697 -1 15 C-2.83008048 10.11978539 -1.600262 4.80078599 0 0 Z " fill="#529CC8" transform="translate(858,597)"/>
<path d="M0 0 C0.66 0.99 1.32 1.98 2 3 C0.88321917 4.6721852 -0.24366352 6.33762803 -1.375 8 C-2.00148438 8.928125 -2.62796875 9.85625 -3.2734375 10.8125 C-3.84320312 11.534375 -4.41296875 12.25625 -5 13 C-5.66 13 -6.32 13 -7 13 C-5.35821735 8.22390502 -2.73453298 4.20617096 0 0 Z " fill="#5497C8" transform="translate(753,575)"/>
<path d="M0 0 C4.92307692 4.18461538 4.92307692 4.18461538 5.3125 8.3125 C5.209375 9.199375 5.10625 10.08625 5 11 C4.67 11 4.34 11 4 11 C4 9.35 4 7.7 4 6 C1.66924071 6.95865509 1.66924071 6.95865509 0 10 C-0.74926071 6.33694766 -1.2380014 3.57644848 0 0 Z " fill="#D5ECF7" transform="translate(395,401)"/>
<path d="M0 0 C0.33 0 0.66 0 1 0 C1 1.98 1 3.96 1 6 C1.66 6 2.32 6 3 6 C3.625 8.875 3.625 8.875 4 12 C3.34 12.66 2.68 13.32 2 14 C-1.52529183 5.33365759 -1.52529183 5.33365759 -1 1 C-0.67 0.67 -0.34 0.34 0 0 Z " fill="#3E4386" transform="translate(165,596)"/>
<path d="M0 0 C5.08717503 -0.29924559 7.82904357 0.06905765 12 3 C13.32608822 3.68096422 14.65686601 4.35330586 16 5 C14.3125 5.6875 14.3125 5.6875 12 6 C9.5 4.625 9.5 4.625 7 3 C5.67139075 2.64830932 4.33841672 2.31229724 3 2 C2.01 1.34 1.02 0.68 0 0 Z " fill="#71C4E6" transform="translate(605,166)"/>
<path d="M0 0 C0.33 0 0.66 0 1 0 C1.53132389 2.58157368 2.05034379 5.16461756 2.5625 7.75 C2.78969727 8.84441406 2.78969727 8.84441406 3.02148438 9.9609375 C3.74557178 13.66557073 4.09817231 16.39322322 3 20 C-0.86045353 14.20931971 -0.14086589 6.7615625 0 0 Z " fill="#2E3A84" transform="translate(286,598)"/>
<path d="M0 0 C0.66 0 1.32 0 2 0 C1.85805236 2.06277107 1.71127784 4.12521031 1.5625 6.1875 C1.48128906 7.33605469 1.40007813 8.48460937 1.31640625 9.66796875 C1.04596188 12.51598171 0.62478253 15.21210482 0 18 C-0.33 18 -0.66 18 -1 18 C-1.02707139 15.75006641 -1.04642829 13.50003905 -1.0625 11.25 C-1.07410156 9.99703125 -1.08570313 8.7440625 -1.09765625 7.453125 C-1.02021027 4.71463499 -0.82780815 2.58119707 0 0 Z " fill="#539FCA" transform="translate(864,566)"/>
<path d="M0 0 C0.66 0.33 1.32 0.66 2 1 C-1.63 4.63 -5.26 8.26 -9 12 C-9 8.47967572 -8.29648649 7.5614657 -6 5 C-5.34 5 -4.68 5 -4 5 C-4 4.34 -4 3.68 -4 3 C-2 1.375 -2 1.375 0 0 Z " fill="#50A8E6" transform="translate(325,382)"/>
<path d="M0 0 C5.21979128 -0.1799928 9.07262981 0.02905192 14 2 C14 2.33 14 2.66 14 3 C8.78020872 3.1799928 4.92737019 2.97094808 0 1 C0 0.67 0 0.34 0 0 Z " fill="#3FADDA" transform="translate(558,157)"/>
<path d="M0 0 C0.33 0.99 0.66 1.98 1 3 C-2.3 5.97 -5.6 8.94 -9 12 C-9.66 11.67 -10.32 11.34 -11 11 C-7.37 7.37 -3.74 3.74 0 0 Z " fill="#D2D7DE" transform="translate(763,767)"/>
<path d="M0 0 C3.3566285 2.23775234 3.57996014 2.93320048 4.6875 6.625 C4.93886719 7.44226563 5.19023437 8.25953125 5.44921875 9.1015625 C5.72185547 10.04128906 5.72185547 10.04128906 6 11 C3 10 3 10 1.3125 7.1875 C0 4 0 4 0 0 Z " fill="#3C3D81" transform="translate(185,657)"/>
<path d="M0 0 C4.11050664 1.45076705 7.53714127 3.34245725 11 6 C11 6.99 11 7.98 11 9 C10.34 9 9.68 9 9 9 C9 8.01 9 7.02 9 6 C8.01 6 7.02 6 6 6 C6 5.34 6 4.68 6 4 C5.071875 3.7834375 5.071875 3.7834375 4.125 3.5625 C2 3 2 3 0 2 C0 1.34 0 0.68 0 0 Z " fill="#37428B" transform="translate(277,586)"/>
<path d="M0 0 C0 0.66 0 1.32 0 2 C-1.609375 3.25390625 -1.609375 3.25390625 -3.75 4.5625 C-4.79414062 5.21412109 -4.79414062 5.21412109 -5.859375 5.87890625 C-7.91997745 6.95809038 -9.72864922 7.54470671 -12 8 C-4.57142857 0 -4.57142857 0 0 0 Z " fill="#CBD0DB" transform="translate(718,806)"/>
<path d="M0 0 C1.12377697 3.30435084 0.89554742 5.0506862 -0.4375 8.25 C-0.72496094 8.95640625 -1.01242187 9.6628125 -1.30859375 10.390625 C-1.53675781 10.92171875 -1.76492188 11.4528125 -2 12 C-2.33 12 -2.66 12 -3 12 C-3.36923077 4.61538462 -3.36923077 4.61538462 -1.5 1.5 C-1.005 1.005 -0.51 0.51 0 0 Z " fill="#4994C2" transform="translate(855,612)"/>
<path d="M0 0 C0.66 0 1.32 0 2 0 C2.33 3.3 2.66 6.6 3 10 C2.01 9.67 1.02 9.34 0 9 C0 6.03 0 3.06 0 0 Z " fill="#434B89" transform="translate(160,578)"/>
<path d="M0 0 C0.33 0 0.66 0 1 0 C1.10251672 5.12583611 1.03590199 9.94997778 0 15 C-0.33 15 -0.66 15 -1 15 C-1.22304441 13.25181409 -1.4278645 11.50129677 -1.625 9.75 C-1.74101563 8.77546875 -1.85703125 7.8009375 -1.9765625 6.796875 C-2.00112537 3.86570607 -1.5312717 2.45471036 0 0 Z " fill="#71AED0" transform="translate(867,554)"/>
<path d="M0 0 C-3.40431947 2.26954631 -5.16524202 2.36549949 -9.1875 2.625 C-10.27417969 2.69976562 -11.36085938 2.77453125 -12.48046875 2.8515625 C-13.31191406 2.90054687 -14.14335938 2.94953125 -15 3 C-12.41464321 1.27642881 -10.96188386 0.55264982 -8.0625 -0.1875 C-7.39347656 -0.36667969 -6.72445312 -0.54585938 -6.03515625 -0.73046875 C-3.75319112 -1.03268678 -2.17973341 -0.68756692 0 0 Z " fill="#59A3D0" transform="translate(599,368)"/>
<path d="M0 0 C-6.625 4 -6.625 4 -10 4 C-9 1 -9 1 -6.6875 -0.25 C-3.90126985 -1.0275526 -2.66561622 -0.98726527 0 0 Z " fill="#3D5B99" transform="translate(656,840)"/>
<path d="M0 0 C2.97 0.495 2.97 0.495 6 1 C6 1.66 6 2.32 6 3 C6.99 3 7.98 3 9 3 C9 3.66 9 4.32 9 5 C7.68428397 4.7452486 6.37239624 4.47065859 5.0625 4.1875 C4.33160156 4.03667969 3.60070312 3.88585937 2.84765625 3.73046875 C2.23792969 3.48941406 1.62820313 3.24835937 1 3 C0.67 2.01 0.34 1.02 0 0 Z " fill="#4E4C8D" transform="translate(357,834)"/>
<path d="M0 0 C0.33 0 0.66 0 1 0 C1 4.29 1 8.58 1 13 C1.99 13.33 2.98 13.66 4 14 C2.35 14.33 0.7 14.66 -1 15 C-0.67 10.05 -0.34 5.1 0 0 Z " fill="#BFD1E3" transform="translate(665,630)"/>
<path d="M0 0 C0.33 0 0.66 0 1 0 C1.5497272 5.63470383 -0.04952165 8.38987758 -3 13 C-3.66 13 -4.32 13 -5 13 C-4.67 11.68 -4.34 10.36 -4 9 C-3.34 9 -2.68 9 -2 9 C-1.34 6.03 -0.68 3.06 0 0 Z " fill="#5470A9" transform="translate(487,622)"/>
<path d="M0 0 C-8.261959 4.59225513 -8.261959 4.59225513 -13 4 C-8.74310869 0.5314219 -5.44072603 -1.61377467 0 0 Z " fill="#60A3CF" transform="translate(578,374)"/>
<path d="M0 0 C0.33 0 0.66 0 1 0 C1.33 3.63 1.66 7.26 2 11 C1.01 11 0.02 11 -1 11 C-0.67 7.37 -0.34 3.74 0 0 Z " fill="#3C508E" transform="translate(156,467)"/>
<path d="M0 0 C0.33 0 0.66 0 1 0 C1.50423019 5.29441695 0.18923033 7.81413519 -3 12 C-4 10 -4 10 -3.22265625 7.6171875 C-2.83980469 6.71226562 -2.45695312 5.80734375 -2.0625 4.875 C-1.68222656 3.96492188 -1.30195313 3.05484375 -0.91015625 2.1171875 C-0.60980469 1.41851562 -0.30945313 0.71984375 0 0 Z " fill="#6193C1" transform="translate(497,447)"/>
<path d="M0 0 C0.66 0 1.32 0 2 0 C0.5682479 5.01113235 -1.98445693 6.94469549 -6 10 C-4.34643078 6.41726669 -2.32019297 3.19026533 0 0 Z " fill="#D0E2ED" transform="translate(622,423)"/>
<path d="M0 0 C6.52307692 1.47692308 6.52307692 1.47692308 8.9375 4.125 C9.288125 4.74375 9.63875 5.3625 10 6 C3.47692308 4.52307692 3.47692308 4.52307692 1.0625 1.875 C0.711875 1.25625 0.36125 0.6375 0 0 Z " fill="#444287" transform="translate(367,838)"/>
<path d="M0 0 C-2.06756277 2.7972908 -3.14440371 3.02692273 -6.6875 3.6875 C-7.780625 3.790625 -8.87375 3.89375 -10 4 C-7.16124653 -0.25813021 -4.8137938 -0.13010254 0 0 Z " fill="#3A488D" transform="translate(411,685)"/>
<path d="M0 0 C1.78409802 3.06246747 2.22880021 5.22079273 2.125 8.75 C2.10695313 9.54921875 2.08890625 10.3484375 2.0703125 11.171875 C2.04710937 11.77515625 2.02390625 12.3784375 2 13 C1.67 13 1.34 13 1 13 C1 10.69 1 8.38 1 6 C0.34 6 -0.32 6 -1 6 C-1.042721 4.33388095 -1.04063832 2.66617115 -1 1 C-0.67 0.67 -0.34 0.34 0 0 Z " fill="#5AA9D4" transform="translate(756,475)"/>
<path d="M0 0 C1.98 0.99 3.96 1.98 6 3 C6 3.66 6 4.32 6 5 C6.66 5 7.32 5 8 5 C8 5.66 8 6.32 8 7 C4.66272214 5.82744291 2.22562513 4.81131596 0 2 C0 1.34 0 0.68 0 0 Z " fill="#3A347E" transform="translate(292,793)"/>
<path d="M0 0 C2.5654594 2.5654594 2.54046087 4.47686668 3 8 C2.01 7.67 1.02 7.34 0 7 C-0.38133299 5.0085944 -0.71325582 3.00720923 -1 1 C-0.67 0.67 -0.34 0.34 0 0 Z " fill="#3D3F84" transform="translate(178,638)"/>
<path d="M0 0 C3 2 3 2 3.51171875 3.9453125 C3.67447917 5.96354167 3.83723958 7.98177083 4 10 C3.34 9.67 2.68 9.34 2 9 C1.3671875 6.93359375 1.3671875 6.93359375 0.875 4.4375 C0.70742187 3.61121094 0.53984375 2.78492188 0.3671875 1.93359375 C0.24601563 1.29550781 0.12484375 0.65742187 0 0 Z " fill="#353981" transform="translate(168,612)"/>
<path d="M0 0 C0.66 0 1.32 0 2 0 C2.33 1.32 2.66 2.64 3 4 C1.35 5.32 -0.3 6.64 -2 8 C-1.33333333 5.33333333 -0.66666667 2.66666667 0 0 Z " fill="#495FA1" transform="translate(267,491)"/>
<path d="M0 0 C0.99 0.33 1.98 0.66 3 1 C2.0409375 1.804375 2.0409375 1.804375 1.0625 2.625 C-1.38529404 5.44367193 -1.66714612 7.33860732 -2 11 C-2.33 11 -2.66 11 -3 11 C-3.36923077 4.6 -3.36923077 4.6 -1.5 1.5625 C-1.005 1.046875 -0.51 0.53125 0 0 Z " fill="#D8E8F5" transform="translate(329,409)"/>
<path d="M0 0 C1 2 1 2 0.3125 4.5 C-1.15567038 7.29651501 -2.09303901 7.93411431 -5 9 C-3.7508258 5.54074837 -2.32472205 2.85306797 0 0 Z " fill="#6588B7" transform="translate(214,311)"/>
<path d="M0 0 C4.455 0.99 4.455 0.99 9 2 C8.67 2.66 8.34 3.32 8 4 C5.36 3.34 2.72 2.68 0 2 C0 1.34 0 0.68 0 0 Z " fill="#32327A" transform="translate(408,853)"/>
<path d="M0 0 C0.66 0.33 1.32 0.66 2 1 C-4.45 5.09326923 -4.45 5.09326923 -7.234375 4.62109375 C-7.81703125 4.41613281 -8.3996875 4.21117187 -9 4 C-7.54618103 3.30300448 -6.08677047 2.61766134 -4.625 1.9375 C-3.40683594 1.36322266 -3.40683594 1.36322266 -2.1640625 0.77734375 C-1.44992187 0.52082031 -0.73578125 0.26429688 0 0 Z " fill="#C5CBD7" transform="translate(667,835)"/>
<path d="M0 0 C0.99 0.33 1.98 0.66 3 1 C4.1875 4.0625 4.1875 4.0625 5 7 C2 6 2 6 0 3 C0 2.01 0 1.02 0 0 Z " fill="#3F3E82" transform="translate(190,669)"/>
<path d="M0 0 C0.66 0 1.32 0 2 0 C0.60667426 3.36720387 -0.9789286 4.9859524 -4 7 C-4 6.01 -4 5.02 -4 4 C-3.34 4 -2.68 4 -2 4 C-1.34 2.68 -0.68 1.36 0 0 Z " fill="#7B77DD" transform="translate(353,587)"/>
<path d="M0 0 C0.33 0 0.66 0 1 0 C1 1.65 1 3.3 1 5 C-0.65 5.66 -2.3 6.32 -4 7 C-2.92598892 4.08482708 -2.22189824 2.22189824 0 0 Z " fill="#6289B8" transform="translate(221,301)"/>
<path d="M0 0 C0.33 1.32 0.66 2.64 1 4 C-0.32 4.99 -1.64 5.98 -3 7 C-3.66 6.67 -4.32 6.34 -5 6 C-3.35 4.02 -1.7 2.04 0 0 Z " fill="#5C86B6" transform="translate(242,275)"/>
<path d="M0 0 C0.66 0.33 1.32 0.66 2 1 C-0.3125 3.5 -0.3125 3.5 -3 6 C-3.99 6 -4.98 6 -6 6 C-5 3 -5 3 -2.5625 1.25 C-1.716875 0.8375 -0.87125 0.425 0 0 Z " fill="#4579B2" transform="translate(266,252)"/>
</svg>
